<svg width="720" height="1024" viewBox="0 0 720 1024" fill="none" xmlns="http://www.w3.org/2000/svg">
<rect width="720" height="1024" fill="#FA7436"/>
<path d="M663 512C663 679.342 527.342 815 360 815C192.658 815 57 679.342 57 512C57 344.658 192.658 209 360 209C527.342 209 663 344.658 663 512Z" fill="url(#paint0_radial_89_37)" fill-opacity="0.2"/>
<path d="M663 512C663 679.342 527.342 815 360 815C192.658 815 57 679.342 57 512C57 344.658 192.658 209 360 209C527.342 209 663 344.658 663 512Z" fill="url(#paint1_linear_89_37)" fill-opacity="0.2"/>
<circle cx="360" cy="511" r="264" fill="url(#paint2_radial_89_37)" fill-opacity="0.2"/>
<circle cx="360" cy="511" r="264" fill="url(#paint3_linear_89_37)" fill-opacity="0.2"/>
<path d="M192.846 876.96C192.846 875.573 193.146 874.34 193.746 873.26C194.346 872.167 195.179 871.32 196.246 870.72C197.326 870.107 198.546 869.8 199.906 869.8C201.572 869.8 202.999 870.24 204.186 871.12C205.372 872 206.166 873.2 206.566 874.72H202.806C202.526 874.133 202.126 873.687 201.606 873.38C201.099 873.073 200.519 872.92 199.866 872.92C198.812 872.92 197.959 873.287 197.306 874.02C196.652 874.753 196.326 875.733 196.326 876.96C196.326 878.187 196.652 879.167 197.306 879.9C197.959 880.633 198.812 881 199.866 881C200.519 881 201.099 880.847 201.606 880.54C202.126 880.233 202.526 879.787 202.806 879.2H206.566C206.166 880.72 205.372 881.92 204.186 882.8C202.999 883.667 201.572 884.1 199.906 884.1C198.546 884.1 197.326 883.8 196.246 883.2C195.179 882.587 194.346 881.74 193.746 880.66C193.146 879.58 192.846 878.347 192.846 876.96ZM213.74 884.16C212.647 884.16 211.66 883.927 210.78 883.46C209.913 882.993 209.227 882.327 208.72 881.46C208.227 880.593 207.98 879.58 207.98 878.42C207.98 877.273 208.233 876.267 208.74 875.4C209.247 874.52 209.94 873.847 210.82 873.38C211.7 872.913 212.687 872.68 213.78 872.68C214.873 872.68 215.86 872.913 216.74 873.38C217.62 873.847 218.313 874.52 218.82 875.4C219.327 876.267 219.58 877.273 219.58 878.42C219.58 879.567 219.32 880.58 218.8 881.46C218.293 882.327 217.593 882.993 216.7 883.46C215.82 883.927 214.833 884.16 213.74 884.16ZM213.74 881.2C214.393 881.2 214.947 880.96 215.4 880.48C215.867 880 216.1 879.313 216.1 878.42C216.1 877.527 215.873 876.84 215.42 876.36C214.98 875.88 214.433 875.64 213.78 875.64C213.113 875.64 212.56 875.88 212.12 876.36C211.68 876.827 211.46 877.513 211.46 878.42C211.46 879.313 211.673 880 212.1 880.48C212.54 880.96 213.087 881.2 213.74 881.2ZM228.194 872.72C229.501 872.72 230.541 873.147 231.314 874C232.101 874.84 232.494 876 232.494 877.48V884H229.094V877.94C229.094 877.193 228.901 876.613 228.514 876.2C228.128 875.787 227.608 875.58 226.954 875.58C226.301 875.58 225.781 875.787 225.394 876.2C225.008 876.613 224.814 877.193 224.814 877.94V884H221.394V872.84H224.814V874.32C225.161 873.827 225.628 873.44 226.214 873.16C226.801 872.867 227.461 872.72 228.194 872.72ZM241.671 872.72C242.978 872.72 244.018 873.147 244.791 874C245.578 874.84 245.971 876 245.971 877.48V884H242.571V877.94C242.571 877.193 242.378 876.613 241.991 876.2C241.604 875.787 241.084 875.58 240.431 875.58C239.778 875.58 239.258 875.787 238.871 876.2C238.484 876.613 238.291 877.193 238.291 877.94V884H234.871V872.84H238.291V874.32C238.638 873.827 239.104 873.44 239.691 873.16C240.278 872.867 240.938 872.72 241.671 872.72ZM258.867 878.24C258.867 878.56 258.847 878.893 258.807 879.24H251.067C251.121 879.933 251.341 880.467 251.727 880.84C252.127 881.2 252.614 881.38 253.187 881.38C254.041 881.38 254.634 881.02 254.967 880.3H258.607C258.421 881.033 258.081 881.693 257.587 882.28C257.107 882.867 256.501 883.327 255.767 883.66C255.034 883.993 254.214 884.16 253.307 884.16C252.214 884.16 251.241 883.927 250.387 883.46C249.534 882.993 248.867 882.327 248.387 881.46C247.907 880.593 247.667 879.58 247.667 878.42C247.667 877.26 247.901 876.247 248.367 875.38C248.847 874.513 249.514 873.847 250.367 873.38C251.221 872.913 252.201 872.68 253.307 872.68C254.387 872.68 255.347 872.907 256.187 873.36C257.027 873.813 257.681 874.46 258.147 875.3C258.627 876.14 258.867 877.12 258.867 878.24ZM255.367 877.34C255.367 876.753 255.167 876.287 254.767 875.94C254.367 875.593 253.867 875.42 253.267 875.42C252.694 875.42 252.207 875.587 251.807 875.92C251.421 876.253 251.181 876.727 251.087 877.34H255.367ZM259.992 878.42C259.992 877.26 260.225 876.247 260.692 875.38C261.172 874.513 261.832 873.847 262.672 873.38C263.525 872.913 264.498 872.68 265.592 872.68C266.992 872.68 268.158 873.047 269.092 873.78C270.038 874.513 270.658 875.547 270.952 876.88H267.312C267.005 876.027 266.412 875.6 265.532 875.6C264.905 875.6 264.405 875.847 264.032 876.34C263.658 876.82 263.472 877.513 263.472 878.42C263.472 879.327 263.658 880.027 264.032 880.52C264.405 881 264.905 881.24 265.532 881.24C266.412 881.24 267.005 880.813 267.312 879.96H270.952C270.658 881.267 270.038 882.293 269.092 883.04C268.145 883.787 266.978 884.16 265.592 884.16C264.498 884.16 263.525 883.927 262.672 883.46C261.832 882.993 261.172 882.327 260.692 881.46C260.225 880.593 259.992 879.58 259.992 878.42ZM279.001 881.1V884H277.261C276.021 884 275.054 883.7 274.361 883.1C273.668 882.487 273.321 881.493 273.321 880.12V875.68H271.961V872.84H273.321V870.12H276.741V872.84H278.981V875.68H276.741V880.16C276.741 880.493 276.821 880.733 276.981 880.88C277.141 881.027 277.408 881.1 277.781 881.1H279.001ZM301.164 872.84L298.144 884H294.364L292.604 876.76L290.784 884H287.024L283.984 872.84H287.404L288.984 880.82L290.864 872.84H294.484L296.384 880.78L297.944 872.84H301.164ZM304.189 871.68C303.589 871.68 303.095 871.507 302.709 871.16C302.335 870.8 302.149 870.36 302.149 869.84C302.149 869.307 302.335 868.867 302.709 868.52C303.095 868.16 303.589 867.98 304.189 867.98C304.775 867.98 305.255 868.16 305.629 868.52C306.015 868.867 306.209 869.307 306.209 869.84C306.209 870.36 306.015 870.8 305.629 871.16C305.255 871.507 304.775 871.68 304.189 871.68ZM305.889 872.84V884H302.469V872.84H305.889ZM314.587 881.1V884H312.847C311.607 884 310.64 883.7 309.947 883.1C309.254 882.487 308.907 881.493 308.907 880.12V875.68H307.547V872.84H308.907V870.12H312.327V872.84H314.567V875.68H312.327V880.16C312.327 880.493 312.407 880.733 312.567 880.88C312.727 881.027 312.994 881.1 313.367 881.1H314.587ZM323.352 872.72C324.632 872.72 325.659 873.147 326.432 874C327.205 874.84 327.592 876 327.592 877.48V884H324.192V877.94C324.192 877.193 323.999 876.613 323.612 876.2C323.225 875.787 322.705 875.58 322.052 875.58C321.399 875.58 320.879 875.787 320.492 876.2C320.105 876.613 319.912 877.193 319.912 877.94V884H316.492V869.2H319.912V874.34C320.259 873.847 320.732 873.453 321.332 873.16C321.932 872.867 322.605 872.72 323.352 872.72ZM333.527 878.4C333.527 877.253 333.74 876.247 334.167 875.38C334.607 874.513 335.2 873.847 335.947 873.38C336.693 872.913 337.527 872.68 338.447 872.68C339.233 872.68 339.92 872.84 340.507 873.16C341.107 873.48 341.567 873.9 341.887 874.42V872.84H345.307V884H341.887V882.42C341.553 882.94 341.087 883.36 340.487 883.68C339.9 884 339.213 884.16 338.427 884.16C337.52 884.16 336.693 883.927 335.947 883.46C335.2 882.98 334.607 882.307 334.167 881.44C333.74 880.56 333.527 879.547 333.527 878.4ZM341.887 878.42C341.887 877.567 341.647 876.893 341.167 876.4C340.7 875.907 340.127 875.66 339.447 875.66C338.767 875.66 338.187 875.907 337.707 876.4C337.24 876.88 337.007 877.547 337.007 878.4C337.007 879.253 337.24 879.933 337.707 880.44C338.187 880.933 338.767 881.18 339.447 881.18C340.127 881.18 340.7 880.933 341.167 880.44C341.647 879.947 341.887 879.273 341.887 878.42ZM354.581 872.72C355.888 872.72 356.928 873.147 357.701 874C358.488 874.84 358.881 876 358.881 877.48V884H355.481V877.94C355.481 877.193 355.288 876.613 354.901 876.2C354.514 875.787 353.994 875.58 353.341 875.58C352.688 875.58 352.168 875.787 351.781 876.2C351.394 876.613 351.201 877.193 351.201 877.94V884H347.781V872.84H351.201V874.32C351.548 873.827 352.014 873.44 352.601 873.16C353.188 872.867 353.848 872.72 354.581 872.72ZM372.658 872.84L365.658 889.3H361.978L364.538 883.62L359.998 872.84H363.818L366.398 879.82L368.958 872.84H372.658ZM381.553 874.42C381.886 873.9 382.346 873.48 382.933 873.16C383.519 872.84 384.206 872.68 384.993 872.68C385.913 872.68 386.746 872.913 387.493 873.38C388.239 873.847 388.826 874.513 389.253 875.38C389.693 876.247 389.913 877.253 389.913 878.4C389.913 879.547 389.693 880.56 389.253 881.44C388.826 882.307 388.239 882.98 387.493 883.46C386.746 883.927 385.913 884.16 384.993 884.16C384.219 884.16 383.533 884 382.933 883.68C382.346 883.36 381.886 882.947 381.553 882.44V889.32H378.133V872.84H381.553V874.42ZM386.433 878.4C386.433 877.547 386.193 876.88 385.713 876.4C385.246 875.907 384.666 875.66 383.973 875.66C383.293 875.66 382.713 875.907 382.233 876.4C381.766 876.893 381.533 877.567 381.533 878.42C381.533 879.273 381.766 879.947 382.233 880.44C382.713 880.933 383.293 881.18 383.973 881.18C384.653 881.18 385.233 880.933 385.713 880.44C386.193 879.933 386.433 879.253 386.433 878.4ZM398.567 872.72C399.847 872.72 400.873 873.147 401.647 874C402.42 874.84 402.807 876 402.807 877.48V884H399.407V877.94C399.407 877.193 399.213 876.613 398.827 876.2C398.44 875.787 397.92 875.58 397.267 875.58C396.613 875.58 396.093 875.787 395.707 876.2C395.32 876.613 395.127 877.193 395.127 877.94V884H391.707V869.2H395.127V874.34C395.473 873.847 395.947 873.453 396.547 873.16C397.147 872.867 397.82 872.72 398.567 872.72ZM410.263 884.16C409.17 884.16 408.183 883.927 407.303 883.46C406.437 882.993 405.75 882.327 405.243 881.46C404.75 880.593 404.503 879.58 404.503 878.42C404.503 877.273 404.757 876.267 405.263 875.4C405.77 874.52 406.463 873.847 407.343 873.38C408.223 872.913 409.21 872.68 410.303 872.68C411.397 872.68 412.383 872.913 413.263 873.38C414.143 873.847 414.837 874.52 415.343 875.4C415.85 876.267 416.103 877.273 416.103 878.42C416.103 879.567 415.843 880.58 415.323 881.46C414.817 882.327 414.117 882.993 413.223 883.46C412.343 883.927 411.357 884.16 410.263 884.16ZM410.263 881.2C410.917 881.2 411.47 880.96 411.923 880.48C412.39 880 412.623 879.313 412.623 878.42C412.623 877.527 412.397 876.84 411.943 876.36C411.503 875.88 410.957 875.64 410.303 875.64C409.637 875.64 409.083 875.88 408.643 876.36C408.203 876.827 407.983 877.513 407.983 878.42C407.983 879.313 408.197 880 408.623 880.48C409.063 880.96 409.61 881.2 410.263 881.2ZM424.138 881.1V884H422.398C421.158 884 420.191 883.7 419.498 883.1C418.804 882.487 418.458 881.493 418.458 880.12V875.68H417.098V872.84H418.458V870.12H421.878V872.84H424.118V875.68H421.878V880.16C421.878 880.493 421.958 880.733 422.118 880.88C422.278 881.027 422.544 881.1 422.918 881.1H424.138ZM431.123 884.16C430.029 884.16 429.043 883.927 428.163 883.46C427.296 882.993 426.609 882.327 426.103 881.46C425.609 880.593 425.363 879.58 425.363 878.42C425.363 877.273 425.616 876.267 426.123 875.4C426.629 874.52 427.323 873.847 428.203 873.38C429.083 872.913 430.069 872.68 431.163 872.68C432.256 872.68 433.243 872.913 434.123 873.38C435.003 873.847 435.696 874.52 436.203 875.4C436.709 876.267 436.963 877.273 436.963 878.42C436.963 879.567 436.703 880.58 436.183 881.46C435.676 882.327 434.976 882.993 434.083 883.46C433.203 883.927 432.216 884.16 431.123 884.16ZM431.123 881.2C431.776 881.2 432.329 880.96 432.783 880.48C433.249 880 433.483 879.313 433.483 878.42C433.483 877.527 433.256 876.84 432.803 876.36C432.363 875.88 431.816 875.64 431.163 875.64C430.496 875.64 429.943 875.88 429.503 876.36C429.063 876.827 428.843 877.513 428.843 878.42C428.843 879.313 429.056 880 429.483 880.48C429.923 880.96 430.469 881.2 431.123 881.2ZM443.017 872.68C443.804 872.68 444.49 872.84 445.077 873.16C445.677 873.48 446.137 873.9 446.457 874.42V872.84H449.877V883.98C449.877 885.007 449.67 885.933 449.257 886.76C448.857 887.6 448.237 888.267 447.397 888.76C446.57 889.253 445.537 889.5 444.297 889.5C442.644 889.5 441.304 889.107 440.277 888.32C439.25 887.547 438.664 886.493 438.517 885.16H441.897C442.004 885.587 442.257 885.92 442.657 886.16C443.057 886.413 443.55 886.54 444.137 886.54C444.844 886.54 445.404 886.333 445.817 885.92C446.244 885.52 446.457 884.873 446.457 883.98V882.4C446.124 882.92 445.664 883.347 445.077 883.68C444.49 884 443.804 884.16 443.017 884.16C442.097 884.16 441.264 883.927 440.517 883.46C439.77 882.98 439.177 882.307 438.737 881.44C438.31 880.56 438.097 879.547 438.097 878.4C438.097 877.253 438.31 876.247 438.737 875.38C439.177 874.513 439.77 873.847 440.517 873.38C441.264 872.913 442.097 872.68 443.017 872.68ZM446.457 878.42C446.457 877.567 446.217 876.893 445.737 876.4C445.27 875.907 444.697 875.66 444.017 875.66C443.337 875.66 442.757 875.907 442.277 876.4C441.81 876.88 441.577 877.547 441.577 878.4C441.577 879.253 441.81 879.933 442.277 880.44C442.757 880.933 443.337 881.18 444.017 881.18C444.697 881.18 445.27 880.933 445.737 880.44C446.217 879.947 446.457 879.273 446.457 878.42ZM455.771 874.7C456.171 874.087 456.671 873.607 457.271 873.26C457.871 872.9 458.538 872.72 459.271 872.72V876.34H458.331C457.478 876.34 456.838 876.527 456.411 876.9C455.985 877.26 455.771 877.9 455.771 878.82V884H452.351V872.84H455.771V874.7ZM460.226 878.4C460.226 877.253 460.439 876.247 460.866 875.38C461.306 874.513 461.899 873.847 462.646 873.38C463.393 872.913 464.226 872.68 465.146 872.68C465.933 872.68 466.619 872.84 467.206 873.16C467.806 873.48 468.266 873.9 468.586 874.42V872.84H472.006V884H468.586V882.42C468.253 882.94 467.786 883.36 467.186 883.68C466.599 884 465.913 884.16 465.126 884.16C464.219 884.16 463.393 883.927 462.646 883.46C461.899 882.98 461.306 882.307 460.866 881.44C460.439 880.56 460.226 879.547 460.226 878.4ZM468.586 878.42C468.586 877.567 468.346 876.893 467.866 876.4C467.399 875.907 466.826 875.66 466.146 875.66C465.466 875.66 464.886 875.907 464.406 876.4C463.939 876.88 463.706 877.547 463.706 878.4C463.706 879.253 463.939 879.933 464.406 880.44C464.886 880.933 465.466 881.18 466.146 881.18C466.826 881.18 467.399 880.933 467.866 880.44C468.346 879.947 468.586 879.273 468.586 878.42ZM477.9 874.42C478.234 873.9 478.694 873.48 479.28 873.16C479.867 872.84 480.554 872.68 481.34 872.68C482.26 872.68 483.094 872.913 483.84 873.38C484.587 873.847 485.174 874.513 485.6 875.38C486.04 876.247 486.26 877.253 486.26 878.4C486.26 879.547 486.04 880.56 485.6 881.44C485.174 882.307 484.587 882.98 483.84 883.46C483.094 883.927 482.26 884.16 481.34 884.16C480.567 884.16 479.88 884 479.28 883.68C478.694 883.36 478.234 882.947 477.9 882.44V889.32H474.48V872.84H477.9V874.42ZM482.78 878.4C482.78 877.547 482.54 876.88 482.06 876.4C481.594 875.907 481.014 875.66 480.32 875.66C479.64 875.66 479.06 875.907 478.58 876.4C478.114 876.893 477.88 877.567 477.88 878.42C477.88 879.273 478.114 879.947 478.58 880.44C479.06 880.933 479.64 881.18 480.32 881.18C481 881.18 481.58 880.933 482.06 880.44C482.54 879.933 482.78 879.253 482.78 878.4ZM494.914 872.72C496.194 872.72 497.221 873.147 497.994 874C498.768 874.84 499.154 876 499.154 877.48V884H495.754V877.94C495.754 877.193 495.561 876.613 495.174 876.2C494.788 875.787 494.268 875.58 493.614 875.58C492.961 875.58 492.441 875.787 492.054 876.2C491.668 876.613 491.474 877.193 491.474 877.94V884H488.054V869.2H491.474V874.34C491.821 873.847 492.294 873.453 492.894 873.16C493.494 872.867 494.168 872.72 494.914 872.72ZM512.051 878.24C512.051 878.56 512.031 878.893 511.991 879.24H504.251C504.304 879.933 504.524 880.467 504.911 880.84C505.311 881.2 505.798 881.38 506.371 881.38C507.224 881.38 507.818 881.02 508.151 880.3H511.791C511.604 881.033 511.264 881.693 510.771 882.28C510.291 882.867 509.684 883.327 508.951 883.66C508.218 883.993 507.398 884.16 506.491 884.16C505.398 884.16 504.424 883.927 503.571 883.46C502.718 882.993 502.051 882.327 501.571 881.46C501.091 880.593 500.851 879.58 500.851 878.42C500.851 877.26 501.084 876.247 501.551 875.38C502.031 874.513 502.698 873.847 503.551 873.38C504.404 872.913 505.384 872.68 506.491 872.68C507.571 872.68 508.531 872.907 509.371 873.36C510.211 873.813 510.864 874.46 511.331 875.3C511.811 876.14 512.051 877.12 512.051 878.24ZM508.551 877.34C508.551 876.753 508.351 876.287 507.951 875.94C507.551 875.593 507.051 875.42 506.451 875.42C505.878 875.42 505.391 875.587 504.991 875.92C504.604 876.253 504.364 876.727 504.271 877.34H508.551ZM517.275 874.7C517.675 874.087 518.175 873.607 518.775 873.26C519.375 872.9 520.042 872.72 520.775 872.72V876.34H519.835C518.982 876.34 518.342 876.527 517.915 876.9C517.489 877.26 517.275 877.9 517.275 878.82V884H513.855V872.84H517.275V874.7ZM524.01 884.16C523.41 884.16 522.917 883.987 522.53 883.64C522.157 883.28 521.97 882.84 521.97 882.32C521.97 881.787 522.157 881.34 522.53 880.98C522.917 880.62 523.41 880.44 524.01 880.44C524.597 880.44 525.077 880.62 525.45 880.98C525.837 881.34 526.03 881.787 526.03 882.32C526.03 882.84 525.837 883.28 525.45 883.64C525.077 883.987 524.597 884.16 524.01 884.16Z" fill="#E0EAFF"/>
<path d="M176.508 898.352V901.616H180.348V903.104H176.508V906.512H180.828V908H174.684V896.864H180.828V898.352H176.508ZM186.483 906.368L188.979 899.184H190.915L187.555 908H185.379L182.035 899.184H183.987L186.483 906.368ZM200.374 903.376C200.374 903.707 200.352 904.005 200.31 904.272H193.574C193.627 904.976 193.888 905.541 194.358 905.968C194.827 906.395 195.403 906.608 196.086 906.608C197.067 906.608 197.76 906.197 198.166 905.376H200.134C199.867 906.187 199.382 906.853 198.678 907.376C197.984 907.888 197.12 908.144 196.086 908.144C195.243 908.144 194.486 907.957 193.814 907.584C193.152 907.2 192.63 906.667 192.246 905.984C191.872 905.291 191.686 904.491 191.686 903.584C191.686 902.677 191.867 901.883 192.23 901.2C192.603 900.507 193.12 899.973 193.782 899.6C194.454 899.227 195.222 899.04 196.086 899.04C196.918 899.04 197.659 899.221 198.31 899.584C198.96 899.947 199.467 900.459 199.83 901.12C200.192 901.771 200.374 902.523 200.374 903.376ZM198.47 902.8C198.459 902.128 198.219 901.589 197.75 901.184C197.28 900.779 196.699 900.576 196.006 900.576C195.376 900.576 194.838 900.779 194.39 901.184C193.942 901.579 193.675 902.117 193.59 902.8H198.47ZM203.993 900.464C204.259 900.016 204.611 899.669 205.049 899.424C205.497 899.168 206.025 899.04 206.633 899.04V900.928H206.169C205.454 900.928 204.91 901.109 204.537 901.472C204.174 901.835 203.993 902.464 203.993 903.36V908H202.169V899.184H203.993V900.464ZM216.245 899.184L210.837 912.144H208.949L210.741 907.856L207.269 899.184H209.301L211.781 905.904L214.357 899.184H216.245ZM219.75 900.672V905.552C219.75 905.883 219.825 906.123 219.974 906.272C220.134 906.411 220.401 906.48 220.774 906.48H221.894V908H220.454C219.633 908 219.003 907.808 218.566 907.424C218.129 907.04 217.91 906.416 217.91 905.552V900.672H216.87V899.184H217.91V896.992H219.75V899.184H221.894V900.672H219.75ZM228.135 899.04C228.807 899.04 229.404 899.184 229.927 899.472C230.46 899.76 230.876 900.187 231.175 900.752C231.484 901.317 231.639 902 231.639 902.8V908H229.831V903.072C229.831 902.283 229.634 901.68 229.239 901.264C228.844 900.837 228.306 900.624 227.623 900.624C226.94 900.624 226.396 900.837 225.991 901.264C225.596 901.68 225.399 902.283 225.399 903.072V908H223.575V896.16H225.399V900.208C225.708 899.835 226.098 899.547 226.567 899.344C227.047 899.141 227.57 899.04 228.135 899.04ZM234.894 898.016C234.563 898.016 234.286 897.904 234.062 897.68C233.838 897.456 233.726 897.179 233.726 896.848C233.726 896.517 233.838 896.24 234.062 896.016C234.286 895.792 234.563 895.68 234.894 895.68C235.214 895.68 235.486 895.792 235.71 896.016C235.934 896.24 236.046 896.517 236.046 896.848C236.046 897.179 235.934 897.456 235.71 897.68C235.486 897.904 235.214 898.016 234.894 898.016ZM235.79 899.184V908H233.966V899.184H235.79ZM242.632 899.04C243.326 899.04 243.944 899.184 244.488 899.472C245.043 899.76 245.475 900.187 245.784 900.752C246.094 901.317 246.248 902 246.248 902.8V908H244.44V903.072C244.44 902.283 244.243 901.68 243.848 901.264C243.454 900.837 242.915 900.624 242.232 900.624C241.55 900.624 241.006 900.837 240.6 901.264C240.206 901.68 240.008 902.283 240.008 903.072V908H238.184V899.184H240.008V900.192C240.307 899.829 240.686 899.547 241.144 899.344C241.614 899.141 242.11 899.04 242.632 899.04ZM252.127 899.04C252.81 899.04 253.412 899.179 253.935 899.456C254.468 899.723 254.884 900.059 255.183 900.464V899.184H257.023V908.144C257.023 908.955 256.852 909.675 256.511 910.304C256.17 910.944 255.674 911.445 255.023 911.808C254.383 912.171 253.615 912.352 252.719 912.352C251.524 912.352 250.532 912.069 249.743 911.504C248.954 910.949 248.506 910.192 248.399 909.232H250.207C250.346 909.691 250.639 910.059 251.087 910.336C251.546 910.624 252.09 910.768 252.719 910.768C253.455 910.768 254.047 910.544 254.495 910.096C254.954 909.648 255.183 908.997 255.183 908.144V906.672C254.874 907.088 254.452 907.44 253.919 907.728C253.396 908.005 252.799 908.144 252.127 908.144C251.359 908.144 250.655 907.952 250.015 907.568C249.386 907.173 248.884 906.629 248.511 905.936C248.148 905.232 247.967 904.437 247.967 903.552C247.967 902.667 248.148 901.883 248.511 901.2C248.884 900.517 249.386 899.989 250.015 899.616C250.655 899.232 251.359 899.04 252.127 899.04ZM255.183 903.584C255.183 902.976 255.055 902.448 254.799 902C254.554 901.552 254.228 901.211 253.823 900.976C253.418 900.741 252.98 900.624 252.511 900.624C252.042 900.624 251.604 900.741 251.199 900.976C250.794 901.2 250.463 901.536 250.207 901.984C249.962 902.421 249.839 902.944 249.839 903.552C249.839 904.16 249.962 904.693 250.207 905.152C250.463 905.611 250.794 905.963 251.199 906.208C251.615 906.443 252.052 906.56 252.511 906.56C252.98 906.56 253.418 906.443 253.823 906.208C254.228 905.973 254.554 905.632 254.799 905.184C255.055 904.725 255.183 904.192 255.183 903.584ZM271.511 899.184L266.103 912.144H264.215L266.007 907.856L262.535 899.184H264.567L267.047 905.904L269.623 899.184H271.511ZM276.712 908.144C275.88 908.144 275.128 907.957 274.456 907.584C273.784 907.2 273.256 906.667 272.872 905.984C272.488 905.291 272.296 904.491 272.296 903.584C272.296 902.688 272.493 901.893 272.888 901.2C273.282 900.507 273.821 899.973 274.504 899.6C275.186 899.227 275.949 899.04 276.792 899.04C277.634 899.04 278.397 899.227 279.08 899.6C279.762 899.973 280.301 900.507 280.696 901.2C281.09 901.893 281.288 902.688 281.288 903.584C281.288 904.48 281.085 905.275 280.68 905.968C280.274 906.661 279.72 907.2 279.016 907.584C278.322 907.957 277.554 908.144 276.712 908.144ZM276.712 906.56C277.181 906.56 277.618 906.448 278.024 906.224C278.44 906 278.776 905.664 279.032 905.216C279.288 904.768 279.416 904.224 279.416 903.584C279.416 902.944 279.293 902.405 279.048 901.968C278.802 901.52 278.477 901.184 278.072 900.96C277.666 900.736 277.229 900.624 276.76 900.624C276.29 900.624 275.853 900.736 275.448 900.96C275.053 901.184 274.738 901.52 274.504 901.968C274.269 902.405 274.152 902.944 274.152 903.584C274.152 904.533 274.392 905.269 274.872 905.792C275.362 906.304 275.976 906.56 276.712 906.56ZM291.075 899.184V908H289.251V906.96C288.963 907.323 288.584 907.611 288.115 907.824C287.656 908.027 287.165 908.128 286.643 908.128C285.949 908.128 285.325 907.984 284.771 907.696C284.227 907.408 283.795 906.981 283.475 906.416C283.165 905.851 283.011 905.168 283.011 904.368V899.184H284.819V904.096C284.819 904.885 285.016 905.493 285.411 905.92C285.805 906.336 286.344 906.544 287.027 906.544C287.709 906.544 288.248 906.336 288.643 905.92C289.048 905.493 289.251 904.885 289.251 904.096V899.184H291.075ZM302.086 899.04C302.779 899.04 303.398 899.184 303.942 899.472C304.496 899.76 304.928 900.187 305.238 900.752C305.547 901.317 305.702 902 305.702 902.8V908H303.894V903.072C303.894 902.283 303.696 901.68 303.302 901.264C302.907 900.837 302.368 900.624 301.686 900.624C301.003 900.624 300.459 900.837 300.054 901.264C299.659 901.68 299.462 902.283 299.462 903.072V908H297.638V899.184H299.462V900.192C299.76 899.829 300.139 899.547 300.598 899.344C301.067 899.141 301.563 899.04 302.086 899.04ZM316.108 903.376C316.108 903.707 316.087 904.005 316.044 904.272H309.308C309.361 904.976 309.623 905.541 310.092 905.968C310.561 906.395 311.137 906.608 311.82 906.608C312.801 906.608 313.495 906.197 313.9 905.376H315.868C315.601 906.187 315.116 906.853 314.412 907.376C313.719 907.888 312.855 908.144 311.82 908.144C310.977 908.144 310.22 907.957 309.548 907.584C308.887 907.2 308.364 906.667 307.98 905.984C307.607 905.291 307.42 904.491 307.42 903.584C307.42 902.677 307.601 901.883 307.964 901.2C308.337 900.507 308.855 899.973 309.516 899.6C310.188 899.227 310.956 899.04 311.82 899.04C312.652 899.04 313.393 899.221 314.044 899.584C314.695 899.947 315.201 900.459 315.564 901.12C315.927 901.771 316.108 902.523 316.108 903.376ZM314.204 902.8C314.193 902.128 313.953 901.589 313.484 901.184C313.015 900.779 312.433 900.576 311.74 900.576C311.111 900.576 310.572 900.779 310.124 901.184C309.676 901.579 309.409 902.117 309.324 902.8H314.204ZM325.983 903.376C325.983 903.707 325.962 904.005 325.919 904.272H319.183C319.236 904.976 319.498 905.541 319.967 905.968C320.436 906.395 321.012 906.608 321.695 906.608C322.676 906.608 323.37 906.197 323.775 905.376H325.743C325.476 906.187 324.991 906.853 324.287 907.376C323.594 907.888 322.73 908.144 321.695 908.144C320.852 908.144 320.095 907.957 319.423 907.584C318.762 907.2 318.239 906.667 317.855 905.984C317.482 905.291 317.295 904.491 317.295 903.584C317.295 902.677 317.476 901.883 317.839 901.2C318.212 900.507 318.73 899.973 319.391 899.6C320.063 899.227 320.831 899.04 321.695 899.04C322.527 899.04 323.268 899.221 323.919 899.584C324.57 899.947 325.076 900.459 325.439 901.12C325.802 901.771 325.983 902.523 325.983 903.376ZM324.079 902.8C324.068 902.128 323.828 901.589 323.359 901.184C322.89 900.779 322.308 900.576 321.615 900.576C320.986 900.576 320.447 900.779 319.999 901.184C319.551 901.579 319.284 902.117 319.199 902.8H324.079ZM327.17 903.552C327.17 902.667 327.351 901.883 327.714 901.2C328.087 900.517 328.589 899.989 329.218 899.616C329.858 899.232 330.567 899.04 331.346 899.04C331.922 899.04 332.487 899.168 333.042 899.424C333.607 899.669 334.055 900 334.386 900.416V896.16H336.226V908H334.386V906.672C334.087 907.099 333.671 907.451 333.138 907.728C332.615 908.005 332.013 908.144 331.33 908.144C330.562 908.144 329.858 907.952 329.218 907.568C328.589 907.173 328.087 906.629 327.714 905.936C327.351 905.232 327.17 904.437 327.17 903.552ZM334.386 903.584C334.386 902.976 334.258 902.448 334.002 902C333.757 901.552 333.431 901.211 333.026 900.976C332.621 900.741 332.183 900.624 331.714 900.624C331.245 900.624 330.807 900.741 330.402 900.976C329.997 901.2 329.666 901.536 329.41 901.984C329.165 902.421 329.042 902.944 329.042 903.552C329.042 904.16 329.165 904.693 329.41 905.152C329.666 905.611 329.997 905.963 330.402 906.208C330.818 906.443 331.255 906.56 331.714 906.56C332.183 906.56 332.621 906.443 333.026 906.208C333.431 905.973 333.757 905.632 334.002 905.184C334.258 904.725 334.386 904.192 334.386 903.584ZM343.706 898.016C343.375 898.016 343.098 897.904 342.874 897.68C342.65 897.456 342.538 897.179 342.538 896.848C342.538 896.517 342.65 896.24 342.874 896.016C343.098 895.792 343.375 895.68 343.706 895.68C344.026 895.68 344.298 895.792 344.522 896.016C344.746 896.24 344.858 896.517 344.858 896.848C344.858 897.179 344.746 897.456 344.522 897.68C344.298 897.904 344.026 898.016 343.706 898.016ZM344.602 899.184V908H342.778V899.184H344.602ZM350.197 908.144C349.504 908.144 348.88 908.021 348.325 907.776C347.781 907.52 347.349 907.179 347.029 906.752C346.709 906.315 346.538 905.829 346.517 905.296H348.405C348.437 905.669 348.613 905.984 348.933 906.24C349.264 906.485 349.674 906.608 350.165 906.608C350.677 906.608 351.072 906.512 351.349 906.32C351.637 906.117 351.781 905.861 351.781 905.552C351.781 905.221 351.621 904.976 351.301 904.816C350.992 904.656 350.496 904.48 349.813 904.288C349.152 904.107 348.613 903.931 348.197 903.76C347.781 903.589 347.418 903.328 347.109 902.976C346.81 902.624 346.661 902.16 346.661 901.584C346.661 901.115 346.8 900.688 347.077 900.304C347.354 899.909 347.749 899.6 348.261 899.376C348.784 899.152 349.381 899.04 350.053 899.04C351.056 899.04 351.861 899.296 352.469 899.808C353.088 900.309 353.418 900.997 353.461 901.872H351.637C351.605 901.477 351.445 901.163 351.157 900.928C350.869 900.693 350.48 900.576 349.989 900.576C349.509 900.576 349.141 900.667 348.885 900.848C348.629 901.029 348.501 901.269 348.501 901.568C348.501 901.803 348.586 902 348.757 902.16C348.928 902.32 349.136 902.448 349.381 902.544C349.626 902.629 349.989 902.741 350.469 902.88C351.109 903.051 351.632 903.227 352.037 903.408C352.453 903.579 352.81 903.835 353.109 904.176C353.408 904.517 353.562 904.971 353.573 905.536C353.573 906.037 353.434 906.485 353.157 906.88C352.88 907.275 352.485 907.584 351.973 907.808C351.472 908.032 350.88 908.144 350.197 908.144ZM359.092 903.552C359.092 902.667 359.273 901.883 359.636 901.2C360.009 900.517 360.511 899.989 361.14 899.616C361.78 899.232 362.484 899.04 363.252 899.04C363.945 899.04 364.548 899.179 365.06 899.456C365.583 899.723 365.999 900.059 366.308 900.464V899.184H368.148V908H366.308V906.688C365.999 907.104 365.577 907.451 365.044 907.728C364.511 908.005 363.903 908.144 363.22 908.144C362.463 908.144 361.769 907.952 361.14 907.568C360.511 907.173 360.009 906.629 359.636 905.936C359.273 905.232 359.092 904.437 359.092 903.552ZM366.308 903.584C366.308 902.976 366.18 902.448 365.924 902C365.679 901.552 365.353 901.211 364.948 900.976C364.543 900.741 364.105 900.624 363.636 900.624C363.167 900.624 362.729 900.741 362.324 900.976C361.919 901.2 361.588 901.536 361.332 901.984C361.087 902.421 360.964 902.944 360.964 903.552C360.964 904.16 361.087 904.693 361.332 905.152C361.588 905.611 361.919 905.963 362.324 906.208C362.74 906.443 363.177 906.56 363.636 906.56C364.105 906.56 364.543 906.443 364.948 906.208C365.353 905.973 365.679 905.632 365.924 905.184C366.18 904.725 366.308 904.192 366.308 903.584ZM374.992 899.04C375.685 899.04 376.304 899.184 376.848 899.472C377.402 899.76 377.834 900.187 378.144 900.752C378.453 901.317 378.608 902 378.608 902.8V908H376.8V903.072C376.8 902.283 376.602 901.68 376.208 901.264C375.813 900.837 375.274 900.624 374.592 900.624C373.909 900.624 373.365 900.837 372.96 901.264C372.565 901.68 372.368 902.283 372.368 903.072V908H370.544V899.184H372.368V900.192C372.666 899.829 373.045 899.547 373.504 899.344C373.973 899.141 374.469 899.04 374.992 899.04ZM386.019 898.016C385.688 898.016 385.411 897.904 385.187 897.68C384.963 897.456 384.851 897.179 384.851 896.848C384.851 896.517 384.963 896.24 385.187 896.016C385.411 895.792 385.688 895.68 386.019 895.68C386.339 895.68 386.611 895.792 386.835 896.016C387.059 896.24 387.171 896.517 387.171 896.848C387.171 897.179 387.059 897.456 386.835 897.68C386.611 897.904 386.339 898.016 386.019 898.016ZM386.915 899.184V908H385.091V899.184H386.915ZM393.757 899.04C394.451 899.04 395.069 899.184 395.613 899.472C396.168 899.76 396.6 900.187 396.909 900.752C397.219 901.317 397.373 902 397.373 902.8V908H395.565V903.072C395.565 902.283 395.368 901.68 394.973 901.264C394.579 900.837 394.04 900.624 393.357 900.624C392.675 900.624 392.131 900.837 391.725 901.264C391.331 901.68 391.133 902.283 391.133 903.072V908H389.309V899.184H391.133V900.192C391.432 899.829 391.811 899.547 392.269 899.344C392.739 899.141 393.235 899.04 393.757 899.04ZM401.828 900.672V905.552C401.828 905.883 401.903 906.123 402.052 906.272C402.212 906.411 402.479 906.48 402.852 906.48H403.972V908H402.532C401.711 908 401.081 907.808 400.644 907.424C400.207 907.04 399.988 906.416 399.988 905.552V900.672H398.948V899.184H399.988V896.992H401.828V899.184H403.972V900.672H401.828ZM413.733 903.376C413.733 903.707 413.712 904.005 413.669 904.272H406.933C406.986 904.976 407.248 905.541 407.717 905.968C408.186 906.395 408.762 906.608 409.445 906.608C410.426 906.608 411.12 906.197 411.525 905.376H413.493C413.226 906.187 412.741 906.853 412.037 907.376C411.344 907.888 410.48 908.144 409.445 908.144C408.602 908.144 407.845 907.957 407.173 907.584C406.512 907.2 405.989 906.667 405.605 905.984C405.232 905.291 405.045 904.491 405.045 903.584C405.045 902.677 405.226 901.883 405.589 901.2C405.962 900.507 406.48 899.973 407.141 899.6C407.813 899.227 408.581 899.04 409.445 899.04C410.277 899.04 411.018 899.221 411.669 899.584C412.32 899.947 412.826 900.459 413.189 901.12C413.552 901.771 413.733 902.523 413.733 903.376ZM411.829 902.8C411.818 902.128 411.578 901.589 411.109 901.184C410.64 900.779 410.058 900.576 409.365 900.576C408.736 900.576 408.197 900.779 407.749 901.184C407.301 901.579 407.034 902.117 406.949 902.8H411.829ZM417.352 900.464C417.619 900.016 417.971 899.669 418.408 899.424C418.856 899.168 419.384 899.04 419.992 899.04V900.928H419.528C418.813 900.928 418.269 901.109 417.896 901.472C417.533 901.835 417.352 902.464 417.352 903.36V908H415.528V899.184H417.352V900.464ZM426.117 899.04C426.81 899.04 427.429 899.184 427.973 899.472C428.527 899.76 428.959 900.187 429.269 900.752C429.578 901.317 429.733 902 429.733 902.8V908H427.925V903.072C427.925 902.283 427.727 901.68 427.333 901.264C426.938 900.837 426.399 900.624 425.717 900.624C425.034 900.624 424.49 900.837 424.085 901.264C423.69 901.68 423.493 902.283 423.493 903.072V908H421.669V899.184H423.493V900.192C423.791 899.829 424.17 899.547 424.629 899.344C425.098 899.141 425.594 899.04 426.117 899.04ZM440.139 903.376C440.139 903.707 440.118 904.005 440.075 904.272H433.339C433.393 904.976 433.654 905.541 434.123 905.968C434.593 906.395 435.169 906.608 435.851 906.608C436.833 906.608 437.526 906.197 437.931 905.376H439.899C439.633 906.187 439.147 906.853 438.443 907.376C437.75 907.888 436.886 908.144 435.851 908.144C435.009 908.144 434.251 907.957 433.579 907.584C432.918 907.2 432.395 906.667 432.011 905.984C431.638 905.291 431.451 904.491 431.451 903.584C431.451 902.677 431.633 901.883 431.995 901.2C432.369 900.507 432.886 899.973 433.547 899.6C434.219 899.227 434.987 899.04 435.851 899.04C436.683 899.04 437.425 899.221 438.075 899.584C438.726 899.947 439.233 900.459 439.595 901.12C439.958 901.771 440.139 902.523 440.139 903.376ZM438.235 902.8C438.225 902.128 437.985 901.589 437.515 901.184C437.046 900.779 436.465 900.576 435.771 900.576C435.142 900.576 434.603 900.779 434.155 901.184C433.707 901.579 433.441 902.117 433.355 902.8H438.235ZM444.062 900.672V905.552C444.062 905.883 444.137 906.123 444.286 906.272C444.446 906.411 444.713 906.48 445.086 906.48H446.206V908H444.766C443.945 908 443.316 907.808 442.878 907.424C442.441 907.04 442.222 906.416 442.222 905.552V900.672H441.182V899.184H442.222V896.992H444.062V899.184H446.206V900.672H444.062ZM451.436 903.584C451.436 902.677 451.617 901.883 451.98 901.2C452.353 900.507 452.865 899.973 453.516 899.6C454.166 899.227 454.913 899.04 455.756 899.04C456.822 899.04 457.702 899.296 458.396 899.808C459.1 900.309 459.574 901.029 459.82 901.968H457.852C457.692 901.531 457.436 901.189 457.084 900.944C456.732 900.699 456.289 900.576 455.756 900.576C455.009 900.576 454.412 900.843 453.964 901.376C453.526 901.899 453.308 902.635 453.308 903.584C453.308 904.533 453.526 905.275 453.964 905.808C454.412 906.341 455.009 906.608 455.756 906.608C456.812 906.608 457.51 906.144 457.852 905.216H459.82C459.564 906.112 459.084 906.827 458.38 907.36C457.676 907.883 456.801 908.144 455.756 908.144C454.913 908.144 454.166 907.957 453.516 907.584C452.865 907.2 452.353 906.667 451.98 905.984C451.617 905.291 451.436 904.491 451.436 903.584ZM465.462 908.144C464.63 908.144 463.878 907.957 463.206 907.584C462.534 907.2 462.006 906.667 461.622 905.984C461.238 905.291 461.046 904.491 461.046 903.584C461.046 902.688 461.243 901.893 461.638 901.2C462.032 900.507 462.571 899.973 463.254 899.6C463.936 899.227 464.699 899.04 465.542 899.04C466.384 899.04 467.147 899.227 467.83 899.6C468.512 899.973 469.051 900.507 469.446 901.2C469.84 901.893 470.038 902.688 470.038 903.584C470.038 904.48 469.835 905.275 469.43 905.968C469.024 906.661 468.47 907.2 467.766 907.584C467.072 907.957 466.304 908.144 465.462 908.144ZM465.462 906.56C465.931 906.56 466.368 906.448 466.774 906.224C467.19 906 467.526 905.664 467.782 905.216C468.038 904.768 468.166 904.224 468.166 903.584C468.166 902.944 468.043 902.405 467.798 901.968C467.552 901.52 467.227 901.184 466.822 900.96C466.416 900.736 465.979 900.624 465.51 900.624C465.04 900.624 464.603 900.736 464.198 900.96C463.803 901.184 463.488 901.52 463.254 901.968C463.019 902.405 462.902 902.944 462.902 903.584C462.902 904.533 463.142 905.269 463.622 905.792C464.112 906.304 464.726 906.56 465.462 906.56ZM476.289 899.04C476.982 899.04 477.601 899.184 478.145 899.472C478.699 899.76 479.131 900.187 479.441 900.752C479.75 901.317 479.905 902 479.905 902.8V908H478.097V903.072C478.097 902.283 477.899 901.68 477.505 901.264C477.11 900.837 476.571 900.624 475.889 900.624C475.206 900.624 474.662 900.837 474.257 901.264C473.862 901.68 473.665 902.283 473.665 903.072V908H471.841V899.184H473.665V900.192C473.963 899.829 474.342 899.547 474.801 899.344C475.27 899.141 475.766 899.04 476.289 899.04ZM486.679 899.04C487.373 899.04 487.991 899.184 488.535 899.472C489.09 899.76 489.522 900.187 489.831 900.752C490.141 901.317 490.295 902 490.295 902.8V908H488.487V903.072C488.487 902.283 488.29 901.68 487.895 901.264C487.501 900.837 486.962 900.624 486.279 900.624C485.597 900.624 485.053 900.837 484.647 901.264C484.253 901.68 484.055 902.283 484.055 903.072V908H482.231V899.184H484.055V900.192C484.354 899.829 484.733 899.547 485.191 899.344C485.661 899.141 486.157 899.04 486.679 899.04ZM500.702 903.376C500.702 903.707 500.681 904.005 500.638 904.272H493.902C493.955 904.976 494.217 905.541 494.686 905.968C495.155 906.395 495.731 906.608 496.414 906.608C497.395 906.608 498.089 906.197 498.494 905.376H500.462C500.195 906.187 499.71 906.853 499.006 907.376C498.313 907.888 497.449 908.144 496.414 908.144C495.571 908.144 494.814 907.957 494.142 907.584C493.481 907.2 492.958 906.667 492.574 905.984C492.201 905.291 492.014 904.491 492.014 903.584C492.014 902.677 492.195 901.883 492.558 901.2C492.931 900.507 493.449 899.973 494.11 899.6C494.782 899.227 495.55 899.04 496.414 899.04C497.246 899.04 497.987 899.221 498.638 899.584C499.289 899.947 499.795 900.459 500.158 901.12C500.521 901.771 500.702 902.523 500.702 903.376ZM498.798 902.8C498.787 902.128 498.547 901.589 498.078 901.184C497.609 900.779 497.027 900.576 496.334 900.576C495.705 900.576 495.166 900.779 494.718 901.184C494.27 901.579 494.003 902.117 493.918 902.8H498.798ZM501.889 903.584C501.889 902.677 502.07 901.883 502.433 901.2C502.806 900.507 503.318 899.973 503.969 899.6C504.62 899.227 505.366 899.04 506.209 899.04C507.276 899.04 508.156 899.296 508.849 899.808C509.553 900.309 510.028 901.029 510.273 901.968H508.305C508.145 901.531 507.889 901.189 507.537 900.944C507.185 900.699 506.742 900.576 506.209 900.576C505.462 900.576 504.865 900.843 504.417 901.376C503.98 901.899 503.761 902.635 503.761 903.584C503.761 904.533 503.98 905.275 504.417 905.808C504.865 906.341 505.462 906.608 506.209 906.608C507.265 906.608 507.964 906.144 508.305 905.216H510.273C510.017 906.112 509.537 906.827 508.833 907.36C508.129 907.883 507.254 908.144 506.209 908.144C505.366 908.144 504.62 907.957 503.969 907.584C503.318 907.2 502.806 906.667 502.433 905.984C502.07 905.291 501.889 904.491 501.889 903.584ZM514.219 900.672V905.552C514.219 905.883 514.293 906.123 514.443 906.272C514.603 906.411 514.869 906.48 515.243 906.48H516.363V908H514.923C514.101 908 513.472 907.808 513.035 907.424C512.597 907.04 512.379 906.416 512.379 905.552V900.672H511.339V899.184H512.379V896.992H514.219V899.184H516.363V900.672H514.219ZM518.972 898.016C518.641 898.016 518.364 897.904 518.14 897.68C517.916 897.456 517.804 897.179 517.804 896.848C517.804 896.517 517.916 896.24 518.14 896.016C518.364 895.792 518.641 895.68 518.972 895.68C519.292 895.68 519.564 895.792 519.788 896.016C520.012 896.24 520.124 896.517 520.124 896.848C520.124 897.179 520.012 897.456 519.788 897.68C519.564 897.904 519.292 898.016 518.972 898.016ZM519.868 899.184V908H518.044V899.184H519.868ZM526.087 908.144C525.255 908.144 524.503 907.957 523.831 907.584C523.159 907.2 522.631 906.667 522.247 905.984C521.863 905.291 521.671 904.491 521.671 903.584C521.671 902.688 521.868 901.893 522.263 901.2C522.657 900.507 523.196 899.973 523.879 899.6C524.561 899.227 525.324 899.04 526.167 899.04C527.009 899.04 527.772 899.227 528.455 899.6C529.137 899.973 529.676 900.507 530.071 901.2C530.465 901.893 530.663 902.688 530.663 903.584C530.663 904.48 530.46 905.275 530.055 905.968C529.649 906.661 529.095 907.2 528.391 907.584C527.697 907.957 526.929 908.144 526.087 908.144ZM526.087 906.56C526.556 906.56 526.993 906.448 527.399 906.224C527.815 906 528.151 905.664 528.407 905.216C528.663 904.768 528.791 904.224 528.791 903.584C528.791 902.944 528.668 902.405 528.423 901.968C528.177 901.52 527.852 901.184 527.447 900.96C527.041 900.736 526.604 900.624 526.135 900.624C525.665 900.624 525.228 900.736 524.823 900.96C524.428 901.184 524.113 901.52 523.879 901.968C523.644 902.405 523.527 902.944 523.527 903.584C523.527 904.533 523.767 905.269 524.247 905.792C524.737 906.304 525.351 906.56 526.087 906.56ZM536.914 899.04C537.607 899.04 538.226 899.184 538.77 899.472C539.324 899.76 539.756 900.187 540.066 900.752C540.375 901.317 540.53 902 540.53 902.8V908H538.722V903.072C538.722 902.283 538.524 901.68 538.13 901.264C537.735 900.837 537.196 900.624 536.514 900.624C535.831 900.624 535.287 900.837 534.882 901.264C534.487 901.68 534.29 902.283 534.29 903.072V908H532.466V899.184H534.29V900.192C534.588 899.829 534.967 899.547 535.426 899.344C535.895 899.141 536.391 899.04 536.914 899.04ZM543.592 908.112C543.262 908.112 542.984 908 542.76 907.776C542.536 907.552 542.424 907.275 542.424 906.944C542.424 906.613 542.536 906.336 542.76 906.112C542.984 905.888 543.262 905.776 543.592 905.776C543.912 905.776 544.184 905.888 544.408 906.112C544.632 906.336 544.744 906.613 544.744 906.944C544.744 907.275 544.632 907.552 544.408 907.776C544.184 908 543.912 908.112 543.592 908.112Z" fill="#E0EAFF" fill-opacity="0.75"/>
<rect x="339.5" y="926" width="16" height="8" rx="4" fill="#E0EAFF"/>
<rect x="359.5" y="926" width="8" height="8" rx="4" fill="#E0EAFF" fill-opacity="0.5"/>
<rect x="371.5" y="926" width="8" height="8" rx="4" fill="#E0EAFF" fill-opacity="0.5"/>
<g clip-path="url(#clip0_89_37)">
<path d="M653 478.552H652.01V451.39C652.011 449.326 651.605 447.282 650.816 445.374C650.027 443.467 648.872 441.734 647.415 440.274C645.957 438.815 644.228 437.657 642.324 436.867C640.42 436.077 638.38 435.67 636.319 435.67H578.879C576.818 435.67 574.778 436.077 572.874 436.867C570.97 437.657 569.241 438.815 567.783 440.274C566.326 441.734 565.171 443.467 564.382 445.374C563.593 447.282 563.187 449.326 563.188 451.39V600.401C563.187 602.465 563.593 604.509 564.382 606.417C565.171 608.324 566.326 610.057 567.783 611.517C569.241 612.976 570.97 614.134 572.874 614.924C574.778 615.714 576.818 616.121 578.879 616.121H636.319C638.38 616.121 640.42 615.714 642.324 614.924C644.228 614.134 645.957 612.976 647.415 611.517C648.872 610.057 650.027 608.324 650.816 606.417C651.605 604.509 652.011 602.465 652.01 600.401V497.886H653V478.552Z" fill="#3F3D56"/>
<path d="M648.671 452.314V601.108C648.671 604.222 647.436 607.208 645.238 609.41C643.04 611.612 640.059 612.849 636.951 612.849H579.235C577.696 612.849 576.173 612.545 574.751 611.955C573.33 611.365 572.038 610.5 570.95 609.409C569.862 608.319 569 607.025 568.411 605.6C567.823 604.176 567.52 602.649 567.521 601.108V452.314C567.521 449.201 568.755 446.216 570.952 444.015C573.149 441.814 576.128 440.578 579.235 440.578H586.237C585.894 441.425 585.763 442.343 585.857 443.252C585.95 444.162 586.266 445.034 586.775 445.793C587.284 446.551 587.971 447.173 588.776 447.603C589.581 448.033 590.479 448.259 591.392 448.26H624.299C625.213 448.261 626.112 448.038 626.919 447.608C627.726 447.179 628.414 446.557 628.924 445.797C629.433 445.038 629.748 444.164 629.841 443.254C629.933 442.344 629.8 441.425 629.454 440.578H636.951C640.059 440.578 643.039 441.814 645.237 444.015C647.435 446.216 648.67 449.201 648.671 452.314Z" fill="white"/>
<path d="M637.744 516.756H570.651V534.894H637.744V516.756Z" fill="#FA7436" fill-opacity="0.8"/>
<path d="M640.407 531.693H575.444C575.021 531.693 574.615 531.524 574.315 531.224C574.016 530.924 573.847 530.517 573.847 530.093V514.089C573.847 513.665 574.016 513.258 574.315 512.958C574.615 512.658 575.021 512.489 575.444 512.489H640.407C640.831 512.489 641.237 512.658 641.536 512.958C641.836 513.258 642.004 513.665 642.005 514.089V530.093C642.004 530.517 641.836 530.924 641.536 531.224C641.237 531.524 640.831 531.693 640.407 531.693ZM575.444 513.556C575.303 513.556 575.168 513.612 575.068 513.712C574.968 513.812 574.912 513.948 574.912 514.089V530.093C574.912 530.234 574.968 530.37 575.068 530.47C575.168 530.57 575.303 530.626 575.444 530.626H640.407C640.548 530.626 640.684 530.57 640.784 530.47C640.884 530.37 640.94 530.234 640.94 530.093V514.089C640.94 513.948 640.884 513.812 640.784 513.712C640.684 513.612 640.548 513.556 640.407 513.556H575.444Z" fill="#3F3D56"/>
<path d="M586.626 526.892H578.106V527.959H586.626V526.892Z" fill="#3F3D56"/>
<path d="M598.341 526.892H589.821V527.959H598.341V526.892Z" fill="#3F3D56"/>
<path d="M610.055 526.892H601.536V527.959H610.055V526.892Z" fill="#3F3D56"/>
<path d="M621.77 526.892H613.25V527.959H621.77V526.892Z" fill="#3F3D56"/>
<path d="M633.485 526.892H624.965V527.959H633.485V526.892Z" fill="#3F3D56"/>
<path opacity="0.1" d="M648.671 585.979V601.108C648.671 604.222 647.436 607.208 645.238 609.41C643.04 611.612 640.059 612.849 636.951 612.849H579.235C577.696 612.849 576.173 612.545 574.751 611.955C573.33 611.365 572.038 610.5 570.95 609.409C569.862 608.319 569 607.025 568.411 605.6C567.823 604.176 567.52 602.649 567.521 601.108V531.512L648.671 585.979Z" fill="black"/>
<path d="M372.035 572.237H120.169V696H372.035V572.237Z" fill="white"/>
<path opacity="0.1" d="M308.003 696H121.234C120.952 695.999 120.682 695.886 120.482 695.687C120.283 695.487 120.17 695.216 120.169 694.933V573.303C120.17 573.021 120.283 572.75 120.482 572.55C120.682 572.35 120.952 572.237 121.234 572.237H123.599L308.003 696Z" fill="black"/>
<path d="M627.095 588.774H236.784V589.841H627.095V588.774Z" fill="#3F3D56"/>
<path d="M360.182 329.303H248.632V327H198.051V329.303H86.0411C85.0502 329.303 84.069 329.499 83.1536 329.879C82.2381 330.259 81.4063 330.816 80.7056 331.517C80.005 332.219 79.4492 333.053 79.07 333.97C78.6908 334.887 78.4956 335.87 78.4956 336.863V489.89C78.4956 491.895 79.2906 493.817 80.7056 495.235C82.1207 496.653 84.0399 497.449 86.0411 497.449H360.182C362.184 497.449 364.103 496.653 365.518 495.235C366.933 493.817 367.728 491.895 367.728 489.89V336.863C367.728 335.87 367.533 334.887 367.154 333.97C366.774 333.053 366.219 332.219 365.518 331.517C364.817 330.816 363.985 330.259 363.07 329.879C362.154 329.499 361.173 329.303 360.182 329.303Z" fill="#3F3D56"/>
<path d="M357.61 342.661H88.6143V494.687H357.61V342.661Z" fill="white"/>
<path d="M222.882 338.517C224.406 338.517 225.641 337.279 225.641 335.753C225.641 334.226 224.406 332.989 222.882 332.989C221.358 332.989 220.123 334.226 220.123 335.753C220.123 337.279 221.358 338.517 222.882 338.517Z" fill="#FA7436" fill-opacity="0.8"/>
<path d="M168.625 399.395H162.236C161.812 399.394 161.406 399.225 161.107 398.925C160.807 398.625 160.639 398.218 160.638 397.794V391.393C160.639 390.968 160.807 390.562 161.107 390.261C161.406 389.961 161.812 389.793 162.236 389.792H168.625C169.049 389.793 169.455 389.961 169.755 390.261C170.054 390.562 170.222 390.968 170.223 391.393V397.794C170.222 398.218 170.054 398.625 169.755 398.925C169.455 399.225 169.049 399.394 168.625 399.395ZM162.236 390.859C162.094 390.859 161.959 390.916 161.859 391.016C161.759 391.116 161.703 391.251 161.703 391.393V397.794C161.703 397.936 161.759 398.071 161.859 398.171C161.959 398.271 162.094 398.327 162.236 398.328H168.625C168.767 398.327 168.902 398.271 169.002 398.171C169.102 398.071 169.158 397.936 169.158 397.794V391.393C169.158 391.251 169.102 391.116 169.002 391.016C168.902 390.916 168.767 390.859 168.625 390.859H162.236Z" fill="#3F3D56"/>
<path d="M282.577 398.328H161.17V399.395H282.577V398.328Z" fill="#3F3D56"/>
<path d="M279.382 427.668H251.161V436.203H279.382V427.668Z" fill="#FA7436" fill-opacity="0.8"/>
<path d="M281.512 434.07H255.421C254.997 434.069 254.591 433.9 254.292 433.6C253.992 433.3 253.824 432.894 253.823 432.469V426.068C253.824 425.643 253.992 425.237 254.292 424.937C254.591 424.637 254.997 424.468 255.421 424.467H281.512C281.936 424.468 282.342 424.637 282.642 424.937C282.941 425.237 283.109 425.643 283.11 426.068V432.469C283.109 432.894 282.941 433.3 282.642 433.6C282.342 433.9 281.936 434.069 281.512 434.07ZM255.421 425.534C255.28 425.534 255.144 425.591 255.044 425.691C254.945 425.791 254.888 425.926 254.888 426.068V432.469C254.888 432.611 254.945 432.746 255.044 432.846C255.144 432.946 255.28 433.003 255.421 433.003H281.512C281.654 433.003 281.789 432.946 281.889 432.846C281.989 432.746 282.045 432.611 282.045 432.469V426.068C282.045 425.926 281.989 425.791 281.889 425.691C281.789 425.591 281.654 425.534 281.512 425.534H255.421Z" fill="#3F3D56"/>
<path d="M495.039 437.27H441.79V474.613H495.039V437.27Z" fill="#FA7436" fill-opacity="0.8"/>
<path d="M500.364 471.679H449.245C448.68 471.678 448.139 471.453 447.74 471.053C447.34 470.653 447.116 470.111 447.115 469.545V434.336C447.116 433.771 447.34 433.228 447.74 432.828C448.139 432.428 448.68 432.203 449.245 432.203H500.364C500.928 432.203 501.47 432.428 501.869 432.828C502.268 433.228 502.493 433.771 502.494 434.336V469.545C502.493 470.111 502.268 470.653 501.869 471.053C501.47 471.453 500.928 471.678 500.364 471.679ZM449.245 434.336V469.545H500.365L500.364 434.336H449.245Z" fill="#3F3D56"/>
<path d="M494.506 433.003H492.376C492.376 428.334 490.525 423.856 487.23 420.555C483.934 417.253 479.465 415.398 474.804 415.398C470.144 415.398 465.675 417.253 462.379 420.555C459.084 423.856 457.232 428.334 457.232 433.003H455.103C455.103 427.768 457.178 422.747 460.873 419.046C464.568 415.344 469.579 413.265 474.804 413.265C480.03 413.265 485.041 415.344 488.736 419.046C492.431 422.747 494.506 427.768 494.506 433.003Z" fill="#3F3D56"/>
<path d="M480.129 447.673C480.13 446.744 479.889 445.831 479.43 445.024C478.97 444.217 478.308 443.544 477.51 443.072C476.711 442.6 475.803 442.345 474.876 442.333C473.949 442.32 473.035 442.55 472.224 443C471.412 443.45 470.733 444.105 470.252 444.899C469.771 445.693 469.505 446.6 469.481 447.528C469.457 448.457 469.675 449.376 470.114 450.194C470.554 451.012 471.198 451.701 471.985 452.193V457.919C471.985 458.289 472.058 458.657 472.2 458.999C472.341 459.342 472.549 459.653 472.811 459.916C473.072 460.178 473.383 460.386 473.725 460.528C474.067 460.67 474.434 460.743 474.804 460.743C475.552 460.743 476.269 460.445 476.797 459.916C477.326 459.386 477.623 458.668 477.623 457.919V452.193C478.39 451.715 479.022 451.049 479.46 450.258C479.899 449.467 480.129 448.578 480.129 447.673Z" fill="#3F3D56"/>
<path d="M226.932 627.183H218.413V628.25H226.932V627.183Z" fill="#3F3D56"/>
<path d="M238.647 627.183H230.127V628.25H238.647V627.183Z" fill="#3F3D56"/>
<path d="M250.362 627.183H241.842V628.25H250.362V627.183Z" fill="#3F3D56"/>
<path d="M262.076 627.183H253.557V628.25H262.076V627.183Z" fill="#3F3D56"/>
<path d="M273.791 627.183H265.271V628.25H273.791V627.183Z" fill="#3F3D56"/>
<path d="M383.217 686.931H133.482C132.917 686.931 132.375 686.706 131.976 686.306C131.577 685.905 131.352 685.363 131.352 684.797V563.168C131.352 562.602 131.577 562.06 131.976 561.66C132.375 561.26 132.917 561.035 133.482 561.034H383.217C383.781 561.034 384.323 561.259 384.722 561.66C385.121 562.06 385.346 562.602 385.347 563.168V684.797C385.346 685.363 385.121 685.906 384.722 686.306C384.323 686.706 383.781 686.931 383.217 686.931ZM133.482 563.168V684.797H383.218L383.217 563.168H133.482Z" fill="#3F3D56"/>
<path d="M144.664 581.305C146.428 581.305 147.859 579.872 147.859 578.105C147.859 576.337 146.428 574.904 144.664 574.904C142.899 574.904 141.469 576.337 141.469 578.105C141.469 579.872 142.899 581.305 144.664 581.305Z" fill="#3F3D56"/>
<path d="M155.846 581.305C157.61 581.305 159.041 579.872 159.041 578.105C159.041 576.337 157.61 574.904 155.846 574.904C154.081 574.904 152.651 576.337 152.651 578.105C152.651 579.872 154.081 581.305 155.846 581.305Z" fill="#3F3D56"/>
<path d="M167.028 581.305C168.792 581.305 170.223 579.872 170.223 578.105C170.223 576.337 168.792 574.904 167.028 574.904C165.263 574.904 163.833 576.337 163.833 578.105C163.833 579.872 165.263 581.305 167.028 581.305Z" fill="#3F3D56"/>
<path d="M282.045 634.652H210.159C209.736 634.651 209.33 634.482 209.03 634.182C208.731 633.882 208.562 633.476 208.562 633.051V614.914C208.562 614.489 208.731 614.082 209.03 613.782C209.33 613.482 209.736 613.314 210.159 613.313H282.045C282.468 613.314 282.875 613.482 283.174 613.782C283.473 614.082 283.642 614.489 283.642 614.914V633.051C283.642 633.476 283.473 633.882 283.174 634.182C282.875 634.482 282.468 634.651 282.045 634.652ZM210.159 614.38C210.018 614.38 209.883 614.437 209.783 614.537C209.683 614.637 209.627 614.772 209.627 614.914V633.051C209.627 633.193 209.683 633.328 209.783 633.428C209.883 633.528 210.018 633.585 210.159 633.585H282.045C282.186 633.585 282.321 633.528 282.421 633.428C282.521 633.328 282.577 633.193 282.577 633.051V614.914C282.577 614.772 282.521 614.637 282.421 614.537C282.321 614.437 282.186 614.38 282.045 614.38H210.159Z" fill="#3F3D56"/>
<path d="M300.149 635.185C305.443 635.185 309.734 630.886 309.734 625.583C309.734 620.28 305.443 615.981 300.149 615.981C294.856 615.981 290.564 620.28 290.564 625.583C290.564 630.886 294.856 635.185 300.149 635.185Z" fill="#FA7436" fill-opacity="0.8"/>
<path d="M303.344 634.118C301.343 634.118 299.387 633.524 297.723 632.41C296.06 631.296 294.763 629.713 293.997 627.861C293.231 626.009 293.031 623.971 293.421 622.005C293.812 620.039 294.775 618.233 296.19 616.815C297.605 615.398 299.408 614.433 301.371 614.041C303.333 613.65 305.367 613.851 307.216 614.618C309.065 615.385 310.645 616.684 311.756 618.351C312.868 620.018 313.461 621.978 313.461 623.982C313.458 626.67 312.392 629.246 310.495 631.146C308.598 633.046 306.027 634.115 303.344 634.118ZM303.344 614.914C301.554 614.914 299.804 615.445 298.315 616.442C296.826 617.438 295.666 618.855 294.981 620.512C294.296 622.169 294.117 623.992 294.466 625.752C294.815 627.511 295.677 629.127 296.943 630.395C298.209 631.663 299.822 632.527 301.578 632.877C303.334 633.227 305.154 633.047 306.808 632.361C308.463 631.675 309.876 630.512 310.871 629.021C311.866 627.529 312.397 625.776 312.397 623.982C312.394 621.578 311.439 619.273 309.742 617.573C308.045 615.873 305.744 614.916 303.344 614.914Z" fill="#3F3D56"/>
<path d="M303.486 627.768L298.331 622.603L299.837 621.094L303.202 624.465L312.59 611.098L314.332 612.327L303.486 627.768Z" fill="#3F3D56"/>
<path opacity="0.1" d="M297.971 494.687H88.6143V354.178L297.971 494.687Z" fill="black"/>
<path d="M375.281 491.921H349.028V490.026C349.028 489.977 349.019 489.928 349 489.882C348.981 489.837 348.953 489.795 348.918 489.76C348.884 489.726 348.842 489.698 348.797 489.679C348.751 489.66 348.703 489.65 348.653 489.65H339.652C339.603 489.65 339.554 489.66 339.509 489.679C339.463 489.698 339.422 489.726 339.387 489.76C339.352 489.795 339.325 489.837 339.306 489.882C339.287 489.928 339.277 489.977 339.277 490.026V491.921H333.652V490.026C333.652 489.977 333.642 489.928 333.623 489.882C333.604 489.837 333.577 489.795 333.542 489.76C333.507 489.726 333.466 489.698 333.42 489.679C333.375 489.66 333.326 489.65 333.277 489.65H324.276C324.227 489.65 324.178 489.66 324.132 489.679C324.087 489.698 324.045 489.726 324.011 489.76C323.976 489.795 323.948 489.837 323.929 489.882C323.91 489.928 323.901 489.977 323.901 490.026V491.921H318.275V490.026C318.275 489.977 318.266 489.928 318.247 489.882C318.228 489.837 318.2 489.795 318.165 489.76C318.131 489.726 318.089 489.698 318.044 489.679C317.998 489.66 317.949 489.65 317.9 489.65H308.899C308.85 489.65 308.801 489.66 308.756 489.679C308.71 489.698 308.669 489.726 308.634 489.76C308.599 489.795 308.572 489.837 308.553 489.882C308.534 489.928 308.524 489.977 308.524 490.026V491.921H302.899V490.026C302.899 489.977 302.889 489.928 302.87 489.882C302.851 489.837 302.824 489.795 302.789 489.76C302.754 489.726 302.713 489.698 302.667 489.679C302.622 489.66 302.573 489.65 302.524 489.65H293.523C293.473 489.65 293.425 489.66 293.379 489.679C293.334 489.698 293.292 489.726 293.258 489.76C293.223 489.795 293.195 489.837 293.176 489.882C293.157 489.928 293.148 489.977 293.148 490.026V491.921H287.522V490.026C287.522 489.977 287.512 489.928 287.494 489.882C287.475 489.837 287.447 489.795 287.412 489.76C287.377 489.726 287.336 489.698 287.291 489.679C287.245 489.66 287.196 489.65 287.147 489.65H278.146C278.097 489.65 278.048 489.66 278.003 489.679C277.957 489.698 277.916 489.726 277.881 489.76C277.846 489.795 277.819 489.837 277.8 489.882C277.781 489.928 277.771 489.977 277.771 490.026V491.921H272.146V490.026C272.146 489.977 272.136 489.928 272.117 489.882C272.098 489.837 272.071 489.795 272.036 489.76C272.001 489.726 271.96 489.698 271.914 489.679C271.869 489.66 271.82 489.65 271.771 489.65H262.77C262.72 489.65 262.672 489.66 262.626 489.679C262.581 489.698 262.539 489.726 262.504 489.76C262.47 489.795 262.442 489.837 262.423 489.882C262.404 489.928 262.395 489.977 262.395 490.026V491.921H256.769V490.026C256.769 489.977 256.759 489.928 256.741 489.882C256.722 489.837 256.694 489.795 256.659 489.76C256.624 489.726 256.583 489.698 256.538 489.679C256.492 489.66 256.443 489.65 256.394 489.65H185.887C185.838 489.65 185.789 489.66 185.743 489.679C185.698 489.698 185.657 489.726 185.622 489.76C185.587 489.795 185.559 489.837 185.54 489.882C185.522 489.928 185.512 489.977 185.512 490.026V491.921H179.886V490.026C179.886 489.977 179.877 489.928 179.858 489.882C179.839 489.837 179.811 489.795 179.776 489.76C179.742 489.726 179.7 489.698 179.655 489.679C179.609 489.66 179.561 489.65 179.511 489.65H170.51C170.461 489.65 170.412 489.66 170.367 489.679C170.321 489.698 170.28 489.726 170.245 489.76C170.21 489.795 170.183 489.837 170.164 489.882C170.145 489.928 170.135 489.977 170.135 490.026V491.921H164.51V490.026C164.51 489.977 164.5 489.928 164.481 489.882C164.462 489.837 164.435 489.795 164.4 489.76C164.365 489.726 164.324 489.698 164.278 489.679C164.233 489.66 164.184 489.65 164.135 489.65H155.134C155.085 489.65 155.036 489.66 154.99 489.679C154.945 489.698 154.903 489.726 154.869 489.76C154.834 489.795 154.806 489.837 154.787 489.882C154.769 489.928 154.759 489.977 154.759 490.026V491.921H149.133V490.026C149.133 489.977 149.124 489.928 149.105 489.882C149.086 489.837 149.058 489.795 149.023 489.76C148.989 489.726 148.947 489.698 148.902 489.679C148.856 489.66 148.807 489.65 148.758 489.65H139.757C139.708 489.65 139.659 489.66 139.614 489.679C139.568 489.698 139.527 489.726 139.492 489.76C139.457 489.795 139.43 489.837 139.411 489.882C139.392 489.928 139.382 489.977 139.382 490.026V491.921H133.757V490.026C133.757 489.977 133.747 489.928 133.728 489.882C133.709 489.837 133.682 489.795 133.647 489.76C133.612 489.726 133.571 489.698 133.525 489.679C133.48 489.66 133.431 489.65 133.382 489.65H124.381C124.331 489.65 124.283 489.66 124.237 489.679C124.192 489.698 124.15 489.726 124.116 489.76C124.081 489.795 124.053 489.837 124.034 489.882C124.015 489.928 124.006 489.977 124.006 490.026V491.921H118.38V490.026C118.38 489.977 118.37 489.928 118.352 489.882C118.333 489.837 118.305 489.795 118.27 489.76C118.236 489.726 118.194 489.698 118.149 489.679C118.103 489.66 118.054 489.65 118.005 489.65H109.004C108.955 489.65 108.906 489.66 108.861 489.679C108.815 489.698 108.774 489.726 108.739 489.76C108.704 489.795 108.677 489.837 108.658 489.882C108.639 489.928 108.629 489.977 108.629 490.026V491.921H103.004V490.026C103.004 489.977 102.994 489.928 102.975 489.882C102.956 489.837 102.929 489.795 102.894 489.76C102.859 489.726 102.818 489.698 102.772 489.679C102.727 489.66 102.678 489.65 102.629 489.65H93.6277C93.5784 489.65 93.5297 489.66 93.4841 489.679C93.4386 489.698 93.3973 489.726 93.3625 489.76C93.3277 489.795 93.3 489.837 93.2812 489.882C93.2623 489.928 93.2526 489.977 93.2526 490.026V491.921H76.0009C74.8189 491.921 73.6484 492.154 72.5564 492.607C71.4644 493.061 70.4721 493.725 69.6363 494.562C68.8005 495.4 68.1375 496.394 67.6852 497.488C67.2328 498.582 67 499.754 67 500.938V505.016C67 507.408 67.9483 509.701 69.6363 511.392C71.3243 513.083 73.6137 514.033 76.0009 514.033H375.281C376.463 514.033 377.633 513.8 378.725 513.347C379.817 512.894 380.81 512.23 381.646 511.392C382.481 510.555 383.144 509.561 383.597 508.467C384.049 507.373 384.282 506.2 384.282 505.016V500.938C384.282 499.754 384.049 498.582 383.597 497.488C383.144 496.394 382.481 495.4 381.646 494.562C380.81 493.725 379.817 493.061 378.725 492.607C377.633 492.154 376.463 491.921 375.281 491.921Z" fill="#3F3D56"/>
<path d="M293.227 443.139H152.651C152.227 443.138 151.821 442.969 151.522 442.669C151.222 442.369 151.054 441.962 151.053 441.538V382.857C151.054 382.433 151.222 382.026 151.522 381.726C151.821 381.426 152.227 381.257 152.651 381.257H293.227C293.65 381.257 294.056 381.426 294.356 381.726C294.655 382.026 294.824 382.433 294.824 382.857V441.538C294.824 441.962 294.655 442.369 294.356 442.669C294.056 442.969 293.65 443.138 293.227 443.139ZM152.651 382.324C152.51 382.324 152.374 382.38 152.274 382.48C152.175 382.58 152.118 382.716 152.118 382.857V441.538C152.118 441.68 152.175 441.815 152.274 441.915C152.374 442.015 152.51 442.071 152.651 442.072H293.227C293.368 442.071 293.503 442.015 293.603 441.915C293.703 441.815 293.759 441.68 293.759 441.538V382.857C293.759 382.716 293.703 382.58 293.603 382.48C293.503 382.38 293.368 382.324 293.227 382.324H152.651Z" fill="#3F3D56"/>
<path d="M168.625 415.398H162.236C161.812 415.398 161.406 415.229 161.107 414.929C160.807 414.629 160.639 414.222 160.638 413.798V407.397C160.639 406.972 160.807 406.565 161.107 406.265C161.406 405.965 161.812 405.797 162.236 405.796H168.625C169.049 405.797 169.455 405.965 169.755 406.265C170.054 406.565 170.222 406.972 170.223 407.397V413.798C170.222 414.222 170.054 414.629 169.755 414.929C169.455 415.229 169.049 415.398 168.625 415.398ZM162.236 406.863C162.094 406.863 161.959 406.92 161.859 407.02C161.759 407.12 161.703 407.255 161.703 407.397V413.798C161.703 413.94 161.759 414.075 161.859 414.175C161.959 414.275 162.094 414.331 162.236 414.332H168.625C168.767 414.331 168.902 414.275 169.002 414.175C169.102 414.075 169.158 413.94 169.158 413.798V407.397C169.158 407.255 169.102 407.12 169.002 407.02C168.902 406.92 168.767 406.863 168.625 406.863H162.236Z" fill="#3F3D56"/>
<path d="M282.577 414.332H161.17V415.398H282.577V414.332Z" fill="#3F3D56"/>
<path d="M598.341 470.879H208.029V471.946H598.341V470.879Z" fill="#3F3D56"/>
<path d="M208.029 478.347C212.147 478.347 215.484 475.003 215.484 470.879C215.484 466.754 212.147 463.41 208.029 463.41C203.912 463.41 200.575 466.754 200.575 470.879C200.575 475.003 203.912 478.347 208.029 478.347Z" fill="#3F3D56"/>
<path d="M598.341 477.814C601.576 477.814 604.198 475.186 604.198 471.946C604.198 468.705 601.576 466.077 598.341 466.077C595.106 466.077 592.483 468.705 592.483 471.946C592.483 475.186 595.106 477.814 598.341 477.814Z" fill="#3F3D56"/>
<path d="M627.095 595.709C630.33 595.709 632.952 593.082 632.952 589.841C632.952 586.6 630.33 583.973 627.095 583.973C623.86 583.973 621.238 586.6 621.238 589.841C621.238 593.082 623.86 595.709 627.095 595.709Z" fill="#3F3D56"/>
<path d="M238.381 595.709C241.616 595.709 244.238 593.082 244.238 589.841C244.238 586.6 241.616 583.973 238.381 583.973C235.146 583.973 232.523 586.6 232.523 589.841C232.523 593.082 235.146 595.709 238.381 595.709Z" fill="#3F3D56"/>
</g>
<defs>
<radialGradient id="paint0_radial_89_37" cx="0" cy="0" r="1" gradientUnits="userSpaceOnUse" gradientTransform="translate(360 512) rotate(90) scale(303)">
<stop stop-color="#FA7436"/>
<stop offset="1" stop-opacity="0"/>
<stop offset="1" stop-opacity="0"/>
</radialGradient>
<linearGradient id="paint1_linear_89_37" x1="232.047" y1="209" x2="417.757" y2="806.559" gradientUnits="userSpaceOnUse">
<stop stop-color="#FA7436"/>
<stop offset="1" stop-opacity="0"/>
</linearGradient>
<radialGradient id="paint2_radial_89_37" cx="0" cy="0" r="1" gradientUnits="userSpaceOnUse" gradientTransform="translate(360 511) rotate(90) scale(264)">
<stop stop-color="#FA7436"/>
<stop offset="1" stop-color="white"/>
</radialGradient>
<linearGradient id="paint3_linear_89_37" x1="360" y1="247" x2="413.333" y2="745.667" gradientUnits="userSpaceOnUse">
<stop stop-color="#FA7436"/>
<stop offset="1" stop-color="white" stop-opacity="0.81"/>
</linearGradient>
<clipPath id="clip0_89_37">
<rect width="586" height="369" fill="white" transform="translate(67 327)"/>
</clipPath>
</defs>
</svg>
