<svg width="606" height="606" viewBox="0 0 606 606" fill="none" xmlns="http://www.w3.org/2000/svg">
<path d="M606 303C606 470.342 470.342 606 303 606C135.658 606 0 470.342 0 303C0 135.658 135.658 0 303 0C470.342 0 606 135.658 606 303Z" fill="url(#paint0_radial_297_323)" fill-opacity="0.2"/>
<path d="M606 303C606 470.342 470.342 606 303 606C135.658 606 0 470.342 0 303C0 135.658 135.658 0 303 0C470.342 0 606 135.658 606 303Z" fill="url(#paint1_linear_297_323)" fill-opacity="0.2"/>
<circle cx="303" cy="302" r="264" fill="url(#paint2_radial_297_323)" fill-opacity="0.2"/>
<circle cx="303" cy="302" r="264" fill="url(#paint3_linear_297_323)" fill-opacity="0.2"/>
<g clip-path="url(#clip0_297_323)">
<path d="M549 269.552H548.169V242.39C548.169 240.326 547.828 238.282 547.166 236.374C546.504 234.467 545.534 232.734 544.31 231.274C543.087 229.815 541.635 228.657 540.036 227.867C538.438 227.077 536.725 226.67 534.995 226.67H486.769C485.039 226.67 483.325 227.077 481.727 227.867C480.129 228.657 478.676 229.815 477.453 231.274C476.23 232.734 475.259 234.467 474.597 236.374C473.935 238.282 473.594 240.326 473.594 242.39V391.401C473.594 393.465 473.935 395.509 474.597 397.417C475.259 399.324 476.23 401.057 477.453 402.517C478.676 403.976 480.129 405.134 481.727 405.924C483.325 406.714 485.039 407.121 486.769 407.121H534.995C536.725 407.121 538.438 406.714 540.036 405.924C541.635 405.134 543.087 403.976 544.31 402.517C545.534 401.057 546.504 399.324 547.166 397.417C547.828 395.509 548.169 393.465 548.169 391.401V288.886H549V269.552Z" fill="#3F3D56"/>
<path d="M545.366 243.314V392.108C545.366 395.222 544.329 398.208 542.484 400.41C540.638 402.612 538.135 403.849 535.526 403.849H487.068C485.776 403.849 484.497 403.545 483.303 402.955C482.11 402.365 481.025 401.5 480.112 400.409C479.199 399.319 478.474 398.025 477.98 396.6C477.486 395.176 477.232 393.649 477.232 392.108V243.314C477.232 240.201 478.269 237.216 480.113 235.015C481.958 232.814 484.459 231.578 487.068 231.578H492.947C492.658 232.425 492.549 233.343 492.627 234.252C492.706 235.162 492.971 236.034 493.398 236.793C493.825 237.551 494.402 238.173 495.078 238.603C495.754 239.033 496.508 239.259 497.275 239.26H524.903C525.67 239.261 526.426 239.038 527.103 238.608C527.78 238.179 528.358 237.557 528.786 236.797C529.214 236.038 529.478 235.164 529.556 234.254C529.633 233.344 529.522 232.425 529.231 231.578H535.526C538.135 231.578 540.637 232.814 542.482 235.015C544.327 237.216 545.365 240.201 545.366 243.314Z" fill="white"/>
<path d="M536.192 307.756H479.861V325.894H536.192V307.756Z" fill="#FA7436" fill-opacity="0.8"/>
<path d="M538.427 322.693H483.885C483.529 322.693 483.188 322.524 482.937 322.224C482.685 321.924 482.544 321.517 482.543 321.093V305.089C482.544 304.665 482.685 304.258 482.937 303.958C483.188 303.658 483.529 303.489 483.885 303.489H538.427C538.783 303.489 539.124 303.658 539.375 303.958C539.626 304.258 539.768 304.665 539.768 305.089V321.093C539.768 321.517 539.626 321.924 539.375 322.224C539.124 322.524 538.783 322.693 538.427 322.693ZM483.885 304.556C483.766 304.556 483.652 304.612 483.569 304.712C483.485 304.812 483.438 304.948 483.438 305.089V321.093C483.438 321.234 483.485 321.37 483.569 321.47C483.652 321.57 483.766 321.626 483.885 321.626H538.427C538.546 321.626 538.659 321.57 538.743 321.47C538.827 321.37 538.874 321.234 538.874 321.093V305.089C538.874 304.948 538.827 304.812 538.743 304.712C538.659 304.612 538.546 304.556 538.427 304.556H483.885Z" fill="#3F3D56"/>
<path d="M493.273 317.892H486.12V318.959H493.273V317.892Z" fill="#3F3D56"/>
<path d="M503.109 317.892H495.956V318.959H503.109V317.892Z" fill="#3F3D56"/>
<path d="M512.944 317.892H505.791V318.959H512.944V317.892Z" fill="#3F3D56"/>
<path d="M522.78 317.892H515.626V318.959H522.78V317.892Z" fill="#3F3D56"/>
<path d="M532.615 317.892H525.462V318.959H532.615V317.892Z" fill="#3F3D56"/>
<path opacity="0.1" d="M545.366 376.979V392.108C545.366 395.222 544.329 398.208 542.484 400.41C540.638 402.612 538.135 403.849 535.526 403.849H487.068C485.776 403.849 484.497 403.545 483.303 402.955C482.11 402.365 481.025 401.5 480.112 400.409C479.199 399.319 478.474 398.025 477.98 396.6C477.486 395.176 477.232 393.649 477.232 392.108V322.512L545.366 376.979Z" fill="black"/>
<path d="M313.104 363.237H101.641V487H313.104V363.237Z" fill="white"/>
<path opacity="0.1" d="M259.344 487H102.535C102.298 486.999 102.071 486.886 101.903 486.687C101.736 486.487 101.641 486.216 101.641 485.933V364.303C101.641 364.021 101.736 363.75 101.903 363.55C102.071 363.35 102.298 363.237 102.535 363.237H104.52L259.344 487Z" fill="black"/>
<path d="M527.25 379.774H199.549V380.841H527.25V379.774Z" fill="#3F3D56"/>
<path d="M303.153 120.303H209.497V118H167.029V120.303H72.987C72.1551 120.303 71.3313 120.499 70.5626 120.879C69.794 121.259 69.0957 121.816 68.5074 122.517C67.9191 123.219 67.4525 124.053 67.1341 124.97C66.8157 125.887 66.6519 126.87 66.6519 127.863V280.89C66.6519 282.895 67.3193 284.817 68.5074 286.235C69.6954 287.653 71.3068 288.449 72.987 288.449H303.153C304.834 288.449 306.445 287.653 307.633 286.235C308.821 284.817 309.489 282.895 309.489 280.89V127.863C309.489 126.87 309.325 125.887 309.006 124.97C308.688 124.053 308.221 123.219 307.633 122.517C307.045 121.816 306.346 121.259 305.578 120.879C304.809 120.499 303.985 120.303 303.153 120.303Z" fill="#3F3D56"/>
<path d="M300.993 133.661H75.147V285.687H300.993V133.661Z" fill="white"/>
<path d="M187.877 129.517C189.156 129.517 190.193 128.279 190.193 126.753C190.193 125.226 189.156 123.989 187.877 123.989C186.598 123.989 185.561 125.226 185.561 126.753C185.561 128.279 186.598 129.517 187.877 129.517Z" fill="#FA7436" fill-opacity="0.8"/>
<path d="M142.324 190.395H136.959C136.603 190.394 136.262 190.225 136.011 189.925C135.759 189.625 135.618 189.218 135.618 188.794V182.393C135.618 181.968 135.759 181.562 136.011 181.261C136.262 180.961 136.603 180.793 136.959 180.792H142.324C142.679 180.793 143.02 180.961 143.272 181.261C143.523 181.562 143.665 181.968 143.665 182.393V188.794C143.665 189.218 143.523 189.625 143.272 189.925C143.02 190.225 142.679 190.394 142.324 190.395ZM136.959 181.859C136.84 181.859 136.727 181.916 136.643 182.016C136.559 182.116 136.512 182.251 136.512 182.393V188.794C136.512 188.936 136.559 189.071 136.643 189.171C136.727 189.271 136.84 189.327 136.959 189.328H142.324C142.442 189.327 142.556 189.271 142.64 189.171C142.723 189.071 142.771 188.936 142.771 188.794V182.393C142.771 182.251 142.723 182.116 142.64 182.016C142.556 181.916 142.442 181.859 142.324 181.859H136.959Z" fill="#3F3D56"/>
<path d="M237.997 189.328H136.065V190.395H237.997V189.328Z" fill="#3F3D56"/>
<path d="M235.314 218.668H211.62V227.203H235.314V218.668Z" fill="#FA7436" fill-opacity="0.8"/>
<path d="M237.103 225.07H215.196C214.841 225.069 214.5 224.9 214.248 224.6C213.997 224.3 213.855 223.894 213.855 223.469V217.068C213.855 216.643 213.997 216.237 214.248 215.937C214.5 215.637 214.841 215.468 215.196 215.467H237.103C237.458 215.468 237.799 215.637 238.051 215.937C238.302 216.237 238.443 216.643 238.444 217.068V223.469C238.443 223.894 238.302 224.3 238.051 224.6C237.799 224.9 237.458 225.069 237.103 225.07ZM215.196 216.534C215.078 216.534 214.964 216.591 214.88 216.691C214.796 216.791 214.749 216.926 214.749 217.068V223.469C214.749 223.611 214.796 223.746 214.88 223.846C214.964 223.946 215.078 224.003 215.196 224.003H237.103C237.221 224.003 237.335 223.946 237.419 223.846C237.502 223.746 237.549 223.611 237.55 223.469V217.068C237.549 216.926 237.502 216.791 237.419 216.691C237.335 216.591 237.221 216.534 237.103 216.534H215.196Z" fill="#3F3D56"/>
<path d="M416.377 228.27H371.67V265.613H416.377V228.27Z" fill="#FA7436" fill-opacity="0.8"/>
<path d="M420.848 262.679H377.929C377.455 262.678 377.001 262.453 376.665 262.053C376.33 261.653 376.142 261.111 376.141 260.545V225.336C376.142 224.771 376.33 224.228 376.665 223.828C377.001 223.428 377.455 223.203 377.929 223.203H420.848C421.322 223.203 421.777 223.428 422.112 223.828C422.447 224.228 422.636 224.771 422.636 225.336V260.545C422.636 261.111 422.447 261.653 422.112 262.053C421.777 262.453 421.322 262.678 420.848 262.679ZM377.929 225.336V260.545H420.849L420.848 225.336H377.929Z" fill="#3F3D56"/>
<path d="M415.93 224.003H414.142C414.142 219.334 412.588 214.856 409.821 211.555C407.054 208.253 403.302 206.398 399.389 206.398C395.476 206.398 391.723 208.253 388.957 211.555C386.19 214.856 384.635 219.334 384.635 224.003H382.847C382.847 218.768 384.59 213.747 387.692 210.046C390.794 206.344 395.002 204.265 399.389 204.265C403.776 204.265 407.983 206.344 411.085 210.046C414.188 213.747 415.93 218.768 415.93 224.003Z" fill="#3F3D56"/>
<path d="M403.859 238.673C403.86 237.744 403.658 236.831 403.272 236.024C402.886 235.217 402.331 234.544 401.66 234.072C400.99 233.6 400.227 233.345 399.449 233.333C398.67 233.32 397.903 233.55 397.222 234C396.541 234.45 395.97 235.105 395.566 235.899C395.162 236.693 394.939 237.6 394.919 238.528C394.899 239.457 395.082 240.376 395.451 241.194C395.82 242.012 396.361 242.701 397.022 243.193V248.919C397.022 249.289 397.083 249.657 397.202 249.999C397.321 250.342 397.495 250.653 397.715 250.916C397.935 251.178 398.195 251.386 398.483 251.528C398.77 251.67 399.078 251.743 399.388 251.743C400.016 251.743 400.618 251.445 401.062 250.916C401.506 250.386 401.755 249.668 401.755 248.919V243.193C402.399 242.715 402.93 242.049 403.298 241.258C403.666 240.467 403.859 239.578 403.859 238.673Z" fill="#3F3D56"/>
<path d="M191.278 418.183H184.125V419.25H191.278V418.183Z" fill="#3F3D56"/>
<path d="M201.114 418.183H193.96V419.25H201.114V418.183Z" fill="#3F3D56"/>
<path d="M210.949 418.183H203.796V419.25H210.949V418.183Z" fill="#3F3D56"/>
<path d="M220.784 418.183H213.631V419.25H220.784V418.183Z" fill="#3F3D56"/>
<path d="M230.62 418.183H223.467V419.25H230.62V418.183Z" fill="#3F3D56"/>
<path d="M322.492 477.931H112.817C112.343 477.931 111.888 477.706 111.553 477.306C111.218 476.905 111.029 476.363 111.029 475.797V354.168C111.029 353.602 111.218 353.06 111.553 352.66C111.888 352.26 112.343 352.035 112.817 352.034H322.492C322.966 352.034 323.421 352.259 323.756 352.66C324.092 353.06 324.28 353.602 324.281 354.168V475.797C324.28 476.363 324.092 476.906 323.756 477.306C323.421 477.706 322.966 477.931 322.492 477.931ZM112.817 354.168V475.797H322.494L322.492 354.168H112.817Z" fill="#3F3D56"/>
<path d="M122.206 372.305C123.687 372.305 124.888 370.872 124.888 369.105C124.888 367.337 123.687 365.904 122.206 365.904C120.724 365.904 119.523 367.337 119.523 369.105C119.523 370.872 120.724 372.305 122.206 372.305Z" fill="#3F3D56"/>
<path d="M131.594 372.305C133.075 372.305 134.276 370.872 134.276 369.105C134.276 367.337 133.075 365.904 131.594 365.904C130.113 365.904 128.912 367.337 128.912 369.105C128.912 370.872 130.113 372.305 131.594 372.305Z" fill="#3F3D56"/>
<path d="M140.983 372.305C142.464 372.305 143.665 370.872 143.665 369.105C143.665 367.337 142.464 365.904 140.983 365.904C139.501 365.904 138.3 367.337 138.3 369.105C138.3 370.872 139.501 372.305 140.983 372.305Z" fill="#3F3D56"/>
<path d="M237.55 425.652H177.195C176.84 425.651 176.499 425.482 176.247 425.182C175.996 424.882 175.854 424.476 175.854 424.051V405.914C175.854 405.489 175.996 405.082 176.247 404.782C176.499 404.482 176.84 404.314 177.195 404.313H237.55C237.905 404.314 238.246 404.482 238.498 404.782C238.749 405.082 238.89 405.489 238.891 405.914V424.051C238.89 424.476 238.749 424.882 238.498 425.182C238.246 425.482 237.905 425.651 237.55 425.652ZM177.195 405.38C177.077 405.38 176.963 405.437 176.879 405.537C176.795 405.637 176.748 405.772 176.748 405.914V424.051C176.748 424.193 176.795 424.328 176.879 424.428C176.963 424.528 177.077 424.585 177.195 424.585H237.55C237.668 424.585 237.782 424.528 237.866 424.428C237.949 424.328 237.997 424.193 237.997 424.051V405.914C237.997 405.772 237.949 405.637 237.866 405.537C237.782 405.437 237.668 405.38 237.55 405.38H177.195Z" fill="#3F3D56"/>
<path d="M252.75 426.185C257.194 426.185 260.797 421.886 260.797 416.583C260.797 411.28 257.194 406.981 252.75 406.981C248.306 406.981 244.703 411.28 244.703 416.583C244.703 421.886 248.306 426.185 252.75 426.185Z" fill="#FA7436" fill-opacity="0.8"/>
<path d="M255.432 425.118C253.752 425.118 252.11 424.524 250.713 423.41C249.316 422.296 248.228 420.713 247.585 418.861C246.942 417.009 246.773 414.971 247.101 413.005C247.429 411.039 248.238 409.233 249.426 407.815C250.614 406.398 252.127 405.433 253.775 405.041C255.423 404.65 257.131 404.851 258.683 405.618C260.235 406.385 261.562 407.684 262.495 409.351C263.428 411.018 263.927 412.978 263.927 414.982C263.924 417.67 263.028 420.246 261.436 422.146C259.843 424.046 257.684 425.115 255.432 425.118ZM255.432 405.914C253.929 405.914 252.46 406.445 251.21 407.442C249.96 408.438 248.986 409.855 248.411 411.512C247.835 413.169 247.685 414.992 247.978 416.752C248.271 418.511 248.995 420.127 250.058 421.395C251.121 422.663 252.475 423.527 253.95 423.877C255.424 424.227 256.952 424.047 258.341 423.361C259.73 422.675 260.917 421.512 261.752 420.021C262.587 418.529 263.032 416.776 263.032 414.982C263.03 412.578 262.229 410.273 260.804 408.573C259.379 406.873 257.447 405.916 255.432 405.914Z" fill="#3F3D56"/>
<path d="M255.552 418.768L251.224 413.603L252.488 412.094L255.313 415.465L263.196 402.098L264.658 403.327L255.552 418.768Z" fill="#3F3D56"/>
<path opacity="0.1" d="M250.921 285.687H75.147V145.178L250.921 285.687Z" fill="black"/>
<path d="M315.83 282.921H293.788V281.026C293.788 280.977 293.78 280.928 293.764 280.882C293.748 280.837 293.725 280.795 293.696 280.76C293.667 280.726 293.632 280.698 293.594 280.679C293.556 280.66 293.515 280.65 293.473 280.65H285.916C285.875 280.65 285.834 280.66 285.796 280.679C285.758 280.698 285.723 280.726 285.694 280.76C285.664 280.795 285.641 280.837 285.625 280.882C285.61 280.928 285.601 280.977 285.601 281.026V282.921H280.878V281.026C280.878 280.977 280.87 280.928 280.854 280.882C280.838 280.837 280.815 280.795 280.786 280.76C280.757 280.726 280.722 280.698 280.684 280.679C280.646 280.66 280.605 280.65 280.563 280.65H273.006C272.965 280.65 272.924 280.66 272.886 280.679C272.848 280.698 272.813 280.726 272.784 280.76C272.754 280.795 272.731 280.837 272.715 280.882C272.7 280.928 272.691 280.977 272.691 281.026V282.921H267.968V281.026C267.968 280.977 267.96 280.928 267.944 280.882C267.928 280.837 267.905 280.795 267.876 280.76C267.847 280.726 267.812 280.698 267.774 280.679C267.736 280.66 267.695 280.65 267.653 280.65H260.096C260.055 280.65 260.014 280.66 259.976 280.679C259.938 280.698 259.903 280.726 259.874 280.76C259.844 280.795 259.821 280.837 259.805 280.882C259.79 280.928 259.781 280.977 259.781 281.026V282.921H255.058V281.026C255.058 280.977 255.05 280.928 255.034 280.882C255.018 280.837 254.995 280.795 254.966 280.76C254.937 280.726 254.902 280.698 254.864 280.679C254.826 280.66 254.785 280.65 254.743 280.65H247.186C247.145 280.65 247.104 280.66 247.066 280.679C247.028 280.698 246.993 280.726 246.964 280.76C246.934 280.795 246.911 280.837 246.895 280.882C246.88 280.928 246.871 280.977 246.871 281.026V282.921H242.148V281.026C242.148 280.977 242.14 280.928 242.124 280.882C242.108 280.837 242.085 280.795 242.056 280.76C242.027 280.726 241.992 280.698 241.954 280.679C241.916 280.66 241.875 280.65 241.833 280.65H234.276C234.235 280.65 234.194 280.66 234.156 280.679C234.118 280.698 234.083 280.726 234.054 280.76C234.024 280.795 234.001 280.837 233.985 280.882C233.97 280.928 233.961 280.977 233.961 281.026V282.921H229.238V281.026C229.238 280.977 229.23 280.928 229.214 280.882C229.198 280.837 229.175 280.795 229.146 280.76C229.117 280.726 229.082 280.698 229.044 280.679C229.006 280.66 228.965 280.65 228.923 280.65H221.366C221.325 280.65 221.284 280.66 221.246 280.679C221.208 280.698 221.173 280.726 221.144 280.76C221.114 280.795 221.091 280.837 221.075 280.882C221.06 280.928 221.051 280.977 221.051 281.026V282.921H216.328V281.026C216.328 280.977 216.32 280.928 216.304 280.882C216.288 280.837 216.265 280.795 216.236 280.76C216.207 280.726 216.172 280.698 216.134 280.679C216.096 280.66 216.055 280.65 216.013 280.65H156.816C156.775 280.65 156.734 280.66 156.696 280.679C156.658 280.698 156.623 280.726 156.594 280.76C156.564 280.795 156.541 280.837 156.525 280.882C156.51 280.928 156.501 280.977 156.501 281.026V282.921H151.778V281.026C151.778 280.977 151.77 280.928 151.754 280.882C151.738 280.837 151.715 280.795 151.686 280.76C151.657 280.726 151.622 280.698 151.584 280.679C151.546 280.66 151.505 280.65 151.463 280.65H143.906C143.865 280.65 143.824 280.66 143.786 280.679C143.748 280.698 143.713 280.726 143.684 280.76C143.654 280.795 143.631 280.837 143.615 280.882C143.6 280.928 143.591 280.977 143.591 281.026V282.921H138.868V281.026C138.868 280.977 138.86 280.928 138.844 280.882C138.828 280.837 138.805 280.795 138.776 280.76C138.747 280.726 138.712 280.698 138.674 280.679C138.636 280.66 138.595 280.65 138.553 280.65H130.996C130.955 280.65 130.914 280.66 130.876 280.679C130.838 280.698 130.803 280.726 130.774 280.76C130.744 280.795 130.721 280.837 130.705 280.882C130.69 280.928 130.681 280.977 130.681 281.026V282.921H125.958V281.026C125.958 280.977 125.95 280.928 125.934 280.882C125.918 280.837 125.895 280.795 125.866 280.76C125.837 280.726 125.802 280.698 125.764 280.679C125.726 280.66 125.685 280.65 125.643 280.65H118.086C118.045 280.65 118.004 280.66 117.966 280.679C117.928 280.698 117.893 280.726 117.864 280.76C117.834 280.795 117.811 280.837 117.795 280.882C117.78 280.928 117.771 280.977 117.771 281.026V282.921H113.048V281.026C113.048 280.977 113.04 280.928 113.024 280.882C113.008 280.837 112.985 280.795 112.956 280.76C112.927 280.726 112.892 280.698 112.854 280.679C112.816 280.66 112.775 280.65 112.733 280.65H105.176C105.135 280.65 105.094 280.66 105.056 280.679C105.018 280.698 104.983 280.726 104.954 280.76C104.924 280.795 104.901 280.837 104.885 280.882C104.87 280.928 104.861 280.977 104.861 281.026V282.921H100.138V281.026C100.138 280.977 100.13 280.928 100.114 280.882C100.099 280.837 100.075 280.795 100.046 280.76C100.017 280.726 99.9821 280.698 99.9439 280.679C99.9057 280.66 99.8648 280.65 99.8234 280.65H92.2663C92.225 280.65 92.184 280.66 92.1458 280.679C92.1076 280.698 92.0729 280.726 92.0437 280.76C92.0144 280.795 91.9912 280.837 91.9754 280.882C91.9596 280.928 91.9515 280.977 91.9515 281.026V282.921H87.2283V281.026C87.2283 280.977 87.2201 280.928 87.2043 280.882C87.1885 280.837 87.1653 280.795 87.1361 280.76C87.1068 280.726 87.0721 280.698 87.0339 280.679C86.9957 280.66 86.9548 280.65 86.9134 280.65H79.3563C79.315 280.65 79.274 280.66 79.2358 280.679C79.1976 280.698 79.1629 280.726 79.1337 280.76C79.1044 280.795 79.0813 280.837 79.0654 280.882C79.0496 280.928 79.0415 280.977 79.0415 281.026V282.921H64.5571C63.5647 282.921 62.582 283.154 61.6651 283.607C60.7482 284.061 59.9152 284.725 59.2134 285.562C58.5117 286.4 57.955 287.394 57.5752 288.488C57.1955 289.582 57 290.754 57 291.938V296.016C57 298.408 57.7962 300.701 59.2134 302.392C60.6306 304.083 62.5528 305.033 64.5571 305.033H315.83C316.822 305.033 317.805 304.8 318.722 304.347C319.639 303.894 320.472 303.23 321.173 302.392C321.875 301.555 322.432 300.561 322.812 299.467C323.191 298.373 323.387 297.2 323.387 296.016V291.938C323.387 290.754 323.191 289.582 322.812 288.488C322.432 287.394 321.875 286.4 321.173 285.562C320.472 284.725 319.639 284.061 318.722 283.607C317.805 283.154 316.822 282.921 315.83 282.921Z" fill="#3F3D56"/>
<path d="M246.938 234.139H128.912C128.556 234.138 128.215 233.969 127.964 233.669C127.712 233.369 127.571 232.962 127.57 232.538V173.857C127.571 173.433 127.712 173.026 127.964 172.726C128.215 172.426 128.556 172.257 128.912 172.257H246.938C247.293 172.257 247.634 172.426 247.886 172.726C248.137 173.026 248.279 173.433 248.279 173.857V232.538C248.279 232.962 248.137 233.369 247.886 233.669C247.634 233.969 247.293 234.138 246.938 234.139ZM128.912 173.324C128.793 173.324 128.679 173.38 128.596 173.48C128.512 173.58 128.465 173.716 128.464 173.857V232.538C128.465 232.68 128.512 232.815 128.596 232.915C128.679 233.015 128.793 233.071 128.912 233.072H246.938C247.056 233.071 247.17 233.015 247.254 232.915C247.338 232.815 247.385 232.68 247.385 232.538V173.857C247.385 173.716 247.338 173.58 247.254 173.48C247.17 173.38 247.056 173.324 246.938 173.324H128.912Z" fill="#3F3D56"/>
<path d="M142.324 206.398H136.959C136.603 206.398 136.262 206.229 136.011 205.929C135.759 205.629 135.618 205.222 135.618 204.798V198.397C135.618 197.972 135.759 197.565 136.011 197.265C136.262 196.965 136.603 196.797 136.959 196.796H142.324C142.679 196.797 143.02 196.965 143.272 197.265C143.523 197.565 143.665 197.972 143.665 198.397V204.798C143.665 205.222 143.523 205.629 143.272 205.929C143.02 206.229 142.679 206.398 142.324 206.398ZM136.959 197.863C136.84 197.863 136.727 197.92 136.643 198.02C136.559 198.12 136.512 198.255 136.512 198.397V204.798C136.512 204.94 136.559 205.075 136.643 205.175C136.727 205.275 136.84 205.331 136.959 205.332H142.324C142.442 205.331 142.556 205.275 142.64 205.175C142.723 205.075 142.771 204.94 142.771 204.798V198.397C142.771 198.255 142.723 198.12 142.64 198.02C142.556 197.92 142.442 197.863 142.324 197.863H136.959Z" fill="#3F3D56"/>
<path d="M237.997 205.332H136.065V206.398H237.997V205.332Z" fill="#3F3D56"/>
<path d="M503.108 261.879H175.407V262.946H503.108V261.879Z" fill="#3F3D56"/>
<path d="M175.407 269.347C178.864 269.347 181.666 266.003 181.666 261.879C181.666 257.754 178.864 254.41 175.407 254.41C171.95 254.41 169.148 257.754 169.148 261.879C169.148 266.003 171.95 269.347 175.407 269.347Z" fill="#3F3D56"/>
<path d="M503.109 268.814C505.825 268.814 508.026 266.186 508.026 262.946C508.026 259.705 505.825 257.077 503.109 257.077C500.393 257.077 498.191 259.705 498.191 262.946C498.191 266.186 500.393 268.814 503.109 268.814Z" fill="#3F3D56"/>
<path d="M527.25 386.709C529.966 386.709 532.168 384.082 532.168 380.841C532.168 377.6 529.966 374.973 527.25 374.973C524.534 374.973 522.333 377.6 522.333 380.841C522.333 384.082 524.534 386.709 527.25 386.709Z" fill="#3F3D56"/>
<path d="M200.89 386.709C203.606 386.709 205.808 384.082 205.808 380.841C205.808 377.6 203.606 374.973 200.89 374.973C198.174 374.973 195.972 377.6 195.972 380.841C195.972 384.082 198.174 386.709 200.89 386.709Z" fill="#3F3D56"/>
</g>
<defs>
<radialGradient id="paint0_radial_297_323" cx="0" cy="0" r="1" gradientUnits="userSpaceOnUse" gradientTransform="translate(303 303) rotate(90) scale(303)">
<stop stop-color="#FA7436"/>
<stop offset="1" stop-opacity="0"/>
<stop offset="1" stop-opacity="0"/>
</radialGradient>
<linearGradient id="paint1_linear_297_323" x1="175.047" y1="1.87602e-06" x2="360.757" y2="597.559" gradientUnits="userSpaceOnUse">
<stop stop-color="#FA7436"/>
<stop offset="1" stop-opacity="0"/>
</linearGradient>
<radialGradient id="paint2_radial_297_323" cx="0" cy="0" r="1" gradientUnits="userSpaceOnUse" gradientTransform="translate(303 302) rotate(90) scale(264)">
<stop stop-color="#FA7436"/>
<stop offset="1" stop-color="white"/>
</radialGradient>
<linearGradient id="paint3_linear_297_323" x1="303" y1="38" x2="356.333" y2="536.667" gradientUnits="userSpaceOnUse">
<stop stop-color="#FA7436"/>
<stop offset="1" stop-color="white" stop-opacity="0.81"/>
</linearGradient>
<clipPath id="clip0_297_323">
<rect width="492" height="369" fill="white" transform="translate(57 118)"/>
</clipPath>
</defs>
</svg>
