<svg width="617" height="606" viewBox="0 0 617 606" fill="none" xmlns="http://www.w3.org/2000/svg">
<path d="M606 303C606 470.342 470.342 606 303 606C135.658 606 0 470.342 0 303C0 135.658 135.658 0 303 0C470.342 0 606 135.658 606 303Z" fill="url(#paint0_radial_301_324)" fill-opacity="0.2"/>
<path d="M606 303C606 470.342 470.342 606 303 606C135.658 606 0 470.342 0 303C0 135.658 135.658 0 303 0C470.342 0 606 135.658 606 303Z" fill="url(#paint1_linear_301_324)" fill-opacity="0.2"/>
<circle cx="303" cy="302" r="264" fill="url(#paint2_radial_301_324)" fill-opacity="0.2"/>
<circle cx="303" cy="302" r="264" fill="url(#paint3_linear_301_324)" fill-opacity="0.2"/>
<path d="M561.631 493.019C549.803 505.018 536.251 515.378 521.372 523.794C521.031 523.993 520.684 524.18 520.336 524.373L496.25 504.173C496.503 503.95 496.783 503.7 497.084 503.426C515.031 487.278 604.128 374.38 610.065 346.887C609.655 349.178 615.422 438.999 561.631 493.019Z" fill="#F0F0F0"/>
<path d="M526.02 527.692C525.565 527.795 525.101 527.891 524.637 527.979L506.566 512.825C506.92 512.708 507.332 512.569 507.804 512.415C515.557 509.814 538.649 501.961 561.63 493.017C586.322 483.403 610.897 472.539 616.182 465.58C615.048 467.197 580.125 516.228 526.02 527.692Z" fill="#F0F0F0"/>
<path d="M561.297 194.211H558.724V127.414C558.724 122.337 557.668 117.31 555.618 112.619C553.568 107.929 550.562 103.667 546.773 100.077C542.985 96.4872 538.487 93.6395 533.536 91.6966C528.586 89.7538 523.281 88.7538 517.922 88.7538H368.567C363.208 88.7538 357.903 89.7537 352.953 91.6966C348.002 93.6394 343.504 96.4871 339.716 100.077C335.927 103.667 332.921 107.929 330.871 112.619C328.821 117.31 327.765 122.337 327.765 127.414V493.866C327.765 498.943 328.82 503.971 330.871 508.661C332.921 513.352 335.927 517.613 339.716 521.203C343.504 524.793 348.002 527.641 352.952 529.584C357.903 531.527 363.208 532.527 368.566 532.527H517.922C523.28 532.527 528.586 531.527 533.536 529.584C538.487 527.641 542.984 524.793 546.773 521.203C550.562 517.614 553.567 513.352 555.618 508.661C557.668 503.971 558.724 498.944 558.724 493.867V241.758H561.297V194.211Z" fill="#3F3D56"/>
<path d="M550.039 127.68V493.599C550.039 497.39 549.251 501.145 547.719 504.647C546.187 508.15 543.942 511.333 541.112 514.013C538.282 516.694 534.923 518.82 531.226 520.27C527.528 521.72 523.566 522.465 519.564 522.464H369.489C365.489 522.464 361.527 521.718 357.831 520.267C354.135 518.817 350.776 516.69 347.947 514.01C345.119 511.33 342.875 508.147 341.344 504.645C339.813 501.143 339.025 497.389 339.025 493.599V127.68C339.025 123.889 339.813 120.135 341.344 116.633C342.875 113.131 345.119 109.949 347.947 107.268C350.776 104.588 354.135 102.462 357.831 101.011C361.527 99.5607 365.489 98.8142 369.489 98.8145H387.702C386.808 100.897 386.467 103.156 386.711 105.393C386.955 107.63 387.775 109.775 389.099 111.641C390.423 113.507 392.21 115.036 394.304 116.094C396.399 117.152 398.735 117.706 401.108 117.707H486.67C489.044 117.709 491.383 117.158 493.479 116.101C495.575 115.044 497.365 113.515 498.689 111.648C500.014 109.781 500.834 107.634 501.076 105.395C501.318 103.157 500.975 100.897 500.077 98.8145H519.564C523.566 98.8131 527.528 99.5587 531.226 101.009C534.923 102.459 538.282 104.585 541.112 107.265C543.942 109.946 546.187 113.128 547.719 116.631C549.251 120.134 550.039 123.888 550.039 127.68Z" fill="white"/>
<path d="M503.356 317.831H371.444C369.134 317.828 366.919 316.957 365.285 315.409C363.651 313.861 362.732 311.763 362.729 309.573V305.463C362.732 303.274 363.651 301.175 365.285 299.627C366.919 298.079 369.134 297.208 371.444 297.206H503.356C505.666 297.208 507.881 298.079 509.515 299.627C511.149 301.175 512.068 303.274 512.07 305.463V309.573C512.068 311.763 511.149 313.861 509.515 315.409C507.881 316.957 505.666 317.828 503.356 317.831Z" fill="#F0F0F0"/>
<path d="M503.356 353.261H371.444C369.134 353.258 366.919 352.388 365.285 350.84C363.651 349.292 362.732 347.193 362.729 345.003V340.893C362.732 338.704 363.651 336.605 365.285 335.057C366.919 333.509 369.134 332.638 371.444 332.636H503.356C505.666 332.638 507.881 333.509 509.515 335.057C511.149 336.605 512.068 338.704 512.07 340.893V345.003C512.068 347.193 511.149 349.292 509.515 350.84C507.881 352.388 505.666 353.258 503.356 353.261Z" fill="#F0F0F0"/>
<path d="M509.954 309.907H378.043C375.617 309.904 373.291 308.99 371.576 307.364C369.86 305.739 368.895 303.535 368.893 301.237V297.126C368.895 294.828 369.86 292.624 371.576 290.999C373.291 289.373 375.617 288.459 378.043 288.456H509.954C512.38 288.459 514.706 289.373 516.422 290.999C518.137 292.624 519.102 294.828 519.105 297.126V301.237C519.102 303.535 518.137 305.739 516.422 307.364C514.706 308.99 512.38 309.904 509.954 309.907ZM378.043 290.108C376.079 290.11 374.196 290.85 372.808 292.166C371.419 293.482 370.638 295.266 370.636 297.126V301.237C370.638 303.097 371.419 304.881 372.808 306.197C374.196 307.513 376.079 308.253 378.043 308.255H509.954C511.918 308.253 513.801 307.513 515.19 306.197C516.579 304.881 517.36 303.097 517.362 301.237V297.126C517.36 295.266 516.579 293.482 515.19 292.166C513.801 290.85 511.918 290.11 509.954 290.108H378.043Z" fill="#3F3D56"/>
<path d="M509.954 345.337H378.043C375.617 345.334 373.291 344.42 371.576 342.795C369.86 341.169 368.895 338.965 368.893 336.667V332.557C368.895 330.258 369.86 328.054 371.576 326.429C373.291 324.803 375.617 323.889 378.043 323.886H509.954C512.38 323.889 514.706 324.803 516.422 326.429C518.137 328.054 519.102 330.258 519.105 332.557V336.667C519.102 338.965 518.137 341.169 516.422 342.795C514.706 344.42 512.38 345.334 509.954 345.337ZM378.043 325.538C376.079 325.54 374.196 326.28 372.808 327.596C371.419 328.912 370.638 330.696 370.636 332.557V336.667C370.638 338.528 371.419 340.312 372.808 341.627C374.196 342.943 376.079 343.683 378.043 343.685H509.954C511.918 343.683 513.801 342.943 515.19 341.627C516.579 340.312 517.36 338.528 517.362 336.667V332.557C517.36 330.696 516.579 328.912 515.19 327.596C513.801 326.28 511.918 325.54 509.954 325.538H378.043Z" fill="#3F3D56"/>
<path d="M550.039 127.68V207.272C536.691 210.599 522.716 210.981 509.189 208.388C495.661 205.795 482.942 200.296 472.009 192.314C461.077 184.333 452.222 174.081 446.127 162.348C440.031 150.615 436.858 137.714 436.85 124.637C436.85 122.303 436.949 119.993 437.147 117.707H486.67C489.044 117.709 491.382 117.158 493.479 116.101C495.575 115.044 497.364 113.515 498.689 111.648C500.014 109.781 500.834 107.634 501.076 105.395C501.317 103.157 500.974 100.897 500.076 98.8145H519.564C523.565 98.8131 527.528 99.5587 531.225 101.009C534.923 102.459 538.282 104.585 541.112 107.265C543.942 109.946 546.187 113.128 547.719 116.631C549.25 120.134 550.039 123.888 550.039 127.68Z" fill="#F0F0F0"/>
<path d="M414.855 517.493C414.855 519.171 414.789 520.828 414.646 522.464H369.489C365.489 522.464 361.527 521.718 357.831 520.267C354.135 518.817 350.776 516.69 347.947 514.01C345.119 511.33 342.875 508.147 341.344 504.645C339.813 501.143 339.025 497.389 339.025 493.599V454.459C348.491 453.293 358.11 454.051 367.242 456.684C376.374 459.317 384.808 463.764 391.983 469.729C399.159 475.693 404.91 483.038 408.854 491.275C412.798 499.511 414.843 508.449 414.855 517.493Z" fill="#FA7436"/>
<path d="M50.6509 448.817C51.9198 449.346 53.3582 449.376 54.6506 448.902C55.9431 448.427 56.984 447.486 57.5451 446.285L98.2247 358.927C99.1558 356.928 99.4403 354.712 99.0422 352.56C98.6441 350.407 97.5814 348.415 95.9883 346.835C94.3953 345.255 92.3436 344.158 90.0926 343.683C87.8416 343.208 85.4924 343.376 83.3423 344.166C80.8581 345.065 78.7793 346.752 77.4596 348.939C77.2497 349.285 77.0593 349.641 76.8893 350.007L36.2098 437.365C35.9325 437.96 35.7817 438.601 35.766 439.252C35.7503 439.902 35.87 440.549 36.1182 441.156C36.3664 441.762 36.7384 442.317 37.2127 442.787C37.6871 443.258 38.2546 443.635 38.8829 443.898L50.6509 448.817Z" fill="#FFB7B7"/>
<path d="M96.5546 394.791L56.3174 386.318L66.2765 361.355C67.9731 355.253 71.9215 349.93 77.4054 346.35C82.8894 342.771 89.5457 341.172 96.167 341.844L96.5547 341.885L96.5546 394.791Z" fill="#2F2E41"/>
<path d="M177.827 450.067C176.644 450.065 175.486 449.738 174.495 449.126C173.503 448.514 172.72 447.643 172.24 446.618L131.56 359.26C130.267 356.48 130.146 353.337 131.224 350.476C132.302 347.615 134.496 345.254 137.355 343.879C140.214 342.504 143.52 342.22 146.594 343.085C149.667 343.949 152.274 345.897 153.878 348.528C154.103 348.899 154.308 349.281 154.49 349.674L195.17 437.032C195.823 438.434 195.861 440.025 195.276 441.454C194.692 442.884 193.531 444.034 192.051 444.653L179.884 449.739L179.878 449.726C179.22 449.951 178.527 450.066 177.827 450.067Z" fill="#FFB7B7"/>
<path d="M121.557 420.068C120.171 420.07 118.842 420.592 117.862 421.521C116.882 422.45 116.33 423.709 116.329 425.023V526.6C116.33 527.914 116.882 529.173 117.862 530.102C118.842 531.031 120.171 531.553 121.557 531.555H134.42C135.806 531.553 137.135 531.031 138.116 530.102C139.096 529.173 139.647 527.914 139.649 526.6V425.023C139.647 423.709 139.096 422.45 138.116 421.521C137.135 420.592 135.806 420.07 134.42 420.068H121.557Z" fill="#FFB7B7"/>
<path d="M96.117 420.068C94.7307 420.07 93.4016 420.592 92.4214 421.521C91.4411 422.45 90.8897 423.709 90.8882 425.023V526.6C90.8897 527.914 91.4411 529.173 92.4214 530.102C93.4016 531.031 94.7307 531.553 96.117 531.555H108.98C110.366 531.553 111.695 531.031 112.675 530.102C113.656 529.173 114.207 527.914 114.208 526.6V425.023C114.207 423.709 113.656 422.45 112.675 421.521C111.695 420.592 110.366 420.07 108.98 420.068H96.117Z" fill="#FFB7B7"/>
<path d="M114.884 313.649C139.431 313.649 159.329 294.794 159.329 271.536C159.329 248.278 139.431 229.423 114.884 229.423C90.3381 229.423 70.4395 248.278 70.4395 271.536C70.4395 294.794 90.3381 313.649 114.884 313.649Z" fill="#FFB7B7"/>
<path d="M129.674 289.214C132.555 289.138 136.141 289.044 138.903 287.132C139.726 286.539 140.402 285.783 140.883 284.917C141.365 284.051 141.641 283.095 141.692 282.117C141.742 281.422 141.622 280.726 141.34 280.082C141.059 279.438 140.625 278.865 140.071 278.407C138.628 277.252 136.521 276.981 134.251 277.613L136.603 261.325L134.876 261.101L132.111 280.25L133.553 279.623C135.225 278.896 137.52 278.526 138.946 279.668C139.296 279.967 139.569 280.338 139.743 280.752C139.917 281.167 139.988 281.614 139.95 282.059C139.908 282.787 139.701 283.498 139.343 284.143C138.985 284.788 138.484 285.352 137.875 285.798C135.726 287.286 132.868 287.478 129.626 287.563L129.674 289.214Z" fill="#2F2E41"/>
<path d="M154.53 262.73H145.143V264.381H154.53V262.73Z" fill="#2F2E41"/>
<path d="M124.9 262.73H115.513V264.381H124.9V262.73Z" fill="#2F2E41"/>
<path d="M158.922 450.58L142.926 339.931C142.754 338.744 142.135 337.657 141.182 336.87C140.23 336.083 139.009 335.649 137.745 335.649H125.67C125.721 335.376 125.747 335.1 125.749 334.823V330.695C125.749 329.381 125.198 328.12 124.217 327.191C123.237 326.262 121.907 325.74 120.52 325.74H110.062C108.676 325.74 107.346 326.262 106.365 327.191C105.384 328.12 104.833 329.381 104.833 330.695V334.823C104.835 335.1 104.861 335.376 104.912 335.649H92.8371C91.5733 335.649 90.3522 336.083 89.3997 336.87C88.4473 337.657 87.828 338.745 87.6564 339.931L71.6597 450.58C71.5584 451.28 71.6166 451.994 71.8306 452.672C72.0445 453.349 72.4091 453.976 72.8998 454.509C73.3906 455.042 73.9962 455.469 74.6759 455.762C75.3555 456.055 76.0934 456.206 76.84 456.206H153.742C154.489 456.206 155.227 456.055 155.906 455.762C156.586 455.469 157.191 455.042 157.682 454.509C158.173 453.976 158.538 453.349 158.752 452.672C158.965 451.994 159.024 451.28 158.922 450.58Z" fill="#2F2E41"/>
<path d="M134.028 394.791V341.885L134.415 341.844C141.045 341.173 147.709 342.777 153.196 346.365C158.684 349.953 162.631 355.287 164.32 361.398L174.265 386.319L134.028 394.791Z" fill="#2F2E41"/>
<path d="M112.646 314.963L81.9047 303.657C76.8779 301.808 71.8229 300.016 66.8226 298.103C64.6808 297.396 62.7078 296.294 61.0173 294.861C59.5456 293.385 58.5425 291.546 58.1231 289.554C57.0569 285.284 57.2496 280.615 57.3257 276.258C57.3847 271.491 57.7987 266.733 58.5647 262.022C59.9072 253.167 63.0598 244.646 67.8461 236.935C76.4673 223.532 91.321 213.448 108.407 214.253C116.317 214.626 124.272 217.315 130.149 222.44C130.762 223.134 131.45 223.765 132.202 224.324C132.724 224.51 133.292 224.546 133.836 224.428C134.553 224.384 135.271 224.351 135.99 224.328C138.482 224.229 140.979 224.328 143.454 224.625C147.965 225.087 152.239 226.768 155.768 229.47C158.705 231.864 161.095 235.243 161.341 238.999C161.46 240.723 161.159 242.449 160.462 244.046C159.764 245.642 158.689 247.066 157.32 248.206C153.652 251.135 148.419 250.105 144.02 249.885L127.903 249.076L119.737 248.666C118.056 248.581 118.061 251.059 119.737 251.143L141.441 252.232C144.929 252.407 148.524 252.836 152.014 252.638C154.696 252.523 157.257 251.547 159.276 249.87C161.12 248.265 162.494 246.235 163.263 243.977C164.032 241.719 164.171 239.311 163.666 236.988C162.547 231.92 158.566 227.727 153.899 225.233C147.55 221.84 139.966 221.514 132.861 222.016L133.786 222.379C125.749 214.206 113.438 210.755 101.881 211.962C89.6786 213.238 78.8254 219.688 71.0276 228.508C62.3334 238.342 57.5956 250.605 55.7538 263.214C54.7952 270.022 54.4797 276.897 54.8108 283.758C54.7972 286.784 55.3435 289.788 56.425 292.635C57.659 295.406 59.89 297.673 62.7215 299.032C65.9677 300.517 69.3049 301.815 72.7153 302.922L84.0412 307.087L106.288 315.269L111.951 317.351C113.521 317.929 114.2 315.534 112.646 314.963Z" fill="#2F2E41"/>
<path d="M64.3105 230.78C61.6389 230.78 59.0273 230.03 56.806 228.623C54.5846 227.217 52.8533 225.218 51.831 222.879C50.8086 220.541 50.5411 217.967 51.0623 215.485C51.5835 213.002 52.87 210.721 54.7591 208.931C56.6482 207.141 59.055 205.922 61.6753 205.429C64.2955 204.935 67.0115 205.188 69.4797 206.157C71.9479 207.126 74.0575 208.766 75.5418 210.871C77.026 212.976 77.8183 215.45 77.8183 217.982C77.8143 221.375 76.3898 224.628 73.8575 227.028C71.3252 229.427 67.8918 230.777 64.3105 230.78ZM64.3105 207.66C62.156 207.66 60.0499 208.265 58.2585 209.399C56.4671 210.534 55.0709 212.146 54.2464 214.032C53.4219 215.918 53.2061 217.993 53.6265 219.995C54.0468 221.997 55.0843 223.837 56.6077 225.28C58.1312 226.724 60.0722 227.707 62.1853 228.105C64.2984 228.503 66.4887 228.299 68.4792 227.518C70.4697 226.736 72.171 225.413 73.368 223.716C74.565 222.019 75.2039 220.023 75.2039 217.982C75.2006 215.245 74.0519 212.621 72.0097 210.686C69.9675 208.751 67.1986 207.663 64.3105 207.66Z" fill="#2F2E41"/>
<path d="M290.111 310.097L260.875 288.909L238.513 316.612L267.75 337.799L290.111 310.097Z" fill="#F0F0F0"/>
<path d="M124.877 120.958C129.497 120.954 134.053 121.976 138.181 123.94C142.309 125.905 145.894 128.758 148.649 132.272L165.721 111.122L114.497 74L75.3193 122.536L97.3967 138.535C99.606 133.343 103.403 128.896 108.3 125.764C113.196 122.632 118.969 120.958 124.877 120.958Z" fill="#F0F0F0"/>
<path d="M465.963 395.985H403.338C401.027 395.983 398.812 395.112 397.178 393.564C395.545 392.016 394.626 389.917 394.623 387.728V383.617C394.626 381.428 395.545 379.329 397.178 377.781C398.812 376.233 401.027 375.363 403.338 375.36H465.963C468.274 375.363 470.489 376.233 472.123 377.781C473.756 379.329 474.675 381.428 474.678 383.617V387.728C474.675 389.917 473.756 392.016 472.123 393.564C470.489 395.112 468.274 395.983 465.963 395.985Z" fill="#FA7436"/>
<path d="M472.562 388.061H409.937C407.511 388.059 405.185 387.145 403.469 385.519C401.754 383.894 400.789 381.69 400.786 379.391V375.281C400.789 372.982 401.754 370.779 403.469 369.153C405.185 367.528 407.511 366.613 409.937 366.611H472.562C474.988 366.613 477.314 367.528 479.03 369.153C480.745 370.779 481.71 372.982 481.713 375.281V379.391C481.71 381.69 480.745 383.894 479.03 385.519C477.314 387.145 474.988 388.059 472.562 388.061ZM409.937 368.262C407.973 368.264 406.09 369.005 404.701 370.32C403.312 371.636 402.531 373.42 402.529 375.281V379.391C402.531 381.252 403.312 383.036 404.701 384.352C406.09 385.668 407.973 386.408 409.937 386.41H472.562C474.526 386.408 476.409 385.668 477.798 384.352C479.186 383.036 479.968 381.252 479.97 379.391V375.281C479.968 373.42 479.186 371.636 477.798 370.32C476.409 369.005 474.526 368.264 472.562 368.262H409.937Z" fill="#3F3D56"/>
<defs>
<radialGradient id="paint0_radial_301_324" cx="0" cy="0" r="1" gradientUnits="userSpaceOnUse" gradientTransform="translate(303 303) rotate(90) scale(303)">
<stop stop-color="#FA7436"/>
<stop offset="1" stop-opacity="0.25"/>
</radialGradient>
<linearGradient id="paint1_linear_301_324" x1="175.047" y1="1.87602e-06" x2="360.757" y2="597.559" gradientUnits="userSpaceOnUse">
<stop stop-color="#FA7436"/>
<stop offset="1" stop-opacity="0"/>
</linearGradient>
<radialGradient id="paint2_radial_301_324" cx="0" cy="0" r="1" gradientUnits="userSpaceOnUse" gradientTransform="translate(303 302) rotate(90) scale(264)">
<stop stop-color="#FA7436"/>
<stop offset="1" stop-color="white"/>
</radialGradient>
<linearGradient id="paint3_linear_301_324" x1="303" y1="38" x2="356.333" y2="536.667" gradientUnits="userSpaceOnUse">
<stop stop-color="#FA7436"/>
<stop offset="1" stop-color="white"/>
</linearGradient>
</defs>
</svg>
