<svg width="606" height="606" viewBox="0 0 606 606" fill="none" xmlns="http://www.w3.org/2000/svg">
<circle cx="303" cy="303" r="303" fill="url(#paint0_radial_307_323)" fill-opacity="0.2"/>
<circle cx="303" cy="303" r="303" fill="url(#paint1_linear_307_323)" fill-opacity="0.2"/>
<circle cx="303" cy="302" r="264" fill="url(#paint2_radial_307_323)" fill-opacity="0.2"/>
<circle cx="303" cy="302" r="264" fill="url(#paint3_linear_307_323)" fill-opacity="0.2"/>
<path d="M361.347 191.562H338.627V379.634C338.627 382.585 338.029 385.507 336.866 388.233C335.703 390.959 333.998 393.436 331.849 395.523C329.7 397.609 327.149 399.264 324.341 400.393C321.534 401.523 318.524 402.104 315.485 402.104H141.784V402.319C141.784 405.27 142.383 408.192 143.546 410.918C144.709 413.644 146.413 416.121 148.562 418.207C150.711 420.294 153.262 421.949 156.07 423.078C158.878 424.208 161.887 424.789 164.926 424.789H361.347C364.386 424.789 367.395 424.208 370.203 423.078C373.011 421.949 375.562 420.294 377.711 418.207C379.86 416.121 381.565 413.644 382.728 410.918C383.891 408.192 384.489 405.27 384.489 402.319V214.032C384.489 208.073 382.051 202.357 377.711 198.144C373.371 193.93 367.485 191.562 361.347 191.562Z" fill="#F2F2F2"/>
<path d="M297.303 165.979C297.872 166.817 298.622 167.524 299.5 168.052C300.379 168.581 301.365 168.918 302.391 169.04C303.417 169.162 304.458 169.066 305.442 168.759C306.426 168.451 307.329 167.941 308.09 167.261L340.509 181.462L346.759 173.722L308.127 157.128C306.854 155.97 305.188 155.306 303.444 155.261C301.7 155.216 300 155.794 298.666 156.885C297.332 157.976 296.456 159.505 296.205 161.181C295.953 162.857 296.344 164.564 297.303 165.979Z" fill="#A0616A"/>
<path d="M436.431 174.835L439.647 192.526C439.797 193.351 439.767 194.198 439.56 195.011C439.353 195.825 438.974 196.588 438.445 197.25C437.917 197.913 437.251 198.461 436.492 198.859C435.732 199.258 434.896 199.497 434.035 199.563L379.4 203.735L315.179 175.828L322.85 161.69L378.599 178.831L436.431 174.835Z" fill="#3F3D56"/>
<path d="M308.563 162.156H112.142C99.3611 162.156 89 172.216 89 184.626V372.912C89 385.322 99.3611 395.382 112.142 395.382H308.563C321.344 395.382 331.705 385.322 331.705 372.912V184.626C331.705 172.216 321.344 162.156 308.563 162.156Z" fill="#F2F2F2"/>
<path d="M112.142 166.777C109.728 166.777 107.338 167.239 105.107 168.136C102.877 169.033 100.851 170.347 99.1435 172.005C97.4365 173.662 96.0824 175.63 95.1586 177.795C94.2348 179.961 93.7593 182.282 93.7593 184.626V372.913C93.7593 377.647 95.696 382.186 99.1435 385.534C102.591 388.881 107.267 390.762 112.142 390.762H237.503C249.249 390.762 260.879 388.515 271.731 384.151C282.583 379.787 292.443 373.39 300.748 365.325C309.054 357.261 315.642 347.687 320.137 337.151C324.632 326.614 326.946 315.321 326.946 303.917V184.626C326.946 182.282 326.47 179.961 325.546 177.795C324.622 175.63 323.268 173.662 321.561 172.005C319.854 170.347 317.828 169.033 315.598 168.136C313.367 167.239 310.977 166.777 308.563 166.777H112.142Z" fill="white"/>
<path d="M265.261 223.919H155.015C154.003 223.919 153.033 223.528 152.317 222.834C151.602 222.139 151.2 221.197 151.2 220.215C151.2 219.233 151.602 218.291 152.317 217.596C153.033 216.902 154.003 216.511 155.015 216.511H265.261C266.273 216.511 267.243 216.902 267.959 217.596C268.674 218.291 269.076 219.233 269.076 220.215C269.076 221.197 268.674 222.139 267.959 222.834C267.243 223.528 266.273 223.919 265.261 223.919Z" fill="#F2F2F2"/>
<path d="M265.261 302.896H155.015C154.003 302.896 153.033 302.506 152.317 301.811C151.602 301.117 151.2 300.175 151.2 299.192C151.2 298.21 151.602 297.268 152.317 296.574C153.033 295.879 154.003 295.489 155.015 295.489H265.261C266.273 295.489 267.243 295.879 267.959 296.574C268.674 297.268 269.076 298.21 269.076 299.192C269.076 300.175 268.674 301.117 267.959 301.811C267.243 302.506 266.273 302.896 265.261 302.896Z" fill="#F2F2F2"/>
<path d="M310.03 263.433H110.245C109.234 263.433 108.264 263.043 107.548 262.348C106.833 261.654 106.431 260.712 106.431 259.729C106.431 258.747 106.833 257.805 107.548 257.111C108.264 256.416 109.234 256.026 110.245 256.026H310.03C311.042 256.026 312.012 256.416 312.727 257.111C313.443 257.805 313.844 258.747 313.844 259.729C313.844 260.712 313.443 261.654 312.727 262.348C312.012 263.043 311.042 263.433 310.03 263.433Z" fill="#F2F2F2"/>
<path d="M429.529 252.81L409.626 293.979L486.187 286.45L470.206 246.929L429.529 252.81Z" fill="#A0616A"/>
<path d="M447.329 489.433L440.069 489.373L436.856 461.554L447.569 461.642L447.329 489.433Z" fill="#A0616A"/>
<path d="M424.077 500.64C424.071 501.476 424.406 502.279 425.009 502.875C425.612 503.471 426.434 503.811 427.295 503.819L441.727 503.936L444.254 498.963L445.182 503.961L450.627 504.009L449.252 486.183L447.358 486.061L439.63 485.543L437.137 485.381L437.093 490.425L425.499 498.06C425.065 498.346 424.709 498.731 424.461 499.18C424.213 499.629 424.082 500.13 424.077 500.64Z" fill="#2F2E41"/>
<path d="M366.997 489.465L360.076 487.337L365.423 459.829L375.637 462.969L366.997 489.465Z" fill="#A0616A"/>
<path d="M341.381 493.544C341.122 494.341 341.199 495.205 341.595 495.947C341.991 496.688 342.674 497.247 343.494 497.501L357.254 501.73L361.174 497.697L360.549 502.739L365.739 504.339L369.819 486.907L368.045 486.25L360.815 483.551L358.481 482.685L356.913 487.493L343.521 491.484C343.019 491.634 342.562 491.899 342.189 492.258C341.817 492.617 341.539 493.058 341.381 493.544Z" fill="#2F2E41"/>
<path d="M482.7 274.873L413.088 287.257C413.088 287.257 401.923 295.367 404.909 298.271C407.896 301.175 408.359 300.725 406.397 302.631C404.435 304.536 400.192 307.083 400.15 308.75C400.108 310.417 368.957 385.194 368.957 385.194C368.957 385.194 372.418 383.513 369.822 386.034C367.226 388.554 367.226 390.637 367.226 390.637L355.112 470.052L374.786 471.177L394.051 398.775L437.022 331.137C437.022 331.137 441.286 391.453 441.465 395.465C441.643 399.477 444.239 394.436 441.643 399.477C439.048 404.518 437.317 401.157 439.048 404.518C440.778 407.878 432.813 476.298 432.813 476.298H450.771L489.286 334.483C489.286 334.483 502.989 293.94 482.7 274.873Z" fill="#2F2E41"/>
<path d="M462.193 161.438L434.309 158.625L427.084 167.732L418.668 172.084C415.107 173.926 412.167 176.725 410.2 180.146C408.234 183.568 407.324 187.467 407.579 191.377L417.415 246.929C417.415 246.929 409.107 265.093 414.819 269.614C420.531 274.135 410.403 285.331 422.607 279.696C434.811 274.061 487.505 280.536 487.505 280.536L476.256 249.449L484.66 218.902L485.585 193.289C485.757 188.503 484.295 183.796 481.424 179.901C478.554 176.007 474.437 173.143 469.715 171.758L468.54 171.413L462.193 161.438Z" fill="#3F3D56"/>
<path d="M500.583 140.682C500.765 148.313 497.828 155.703 493.608 162.193C492.354 158.404 490.101 154.956 487.75 151.668C488.935 158.78 487.673 166.072 484.159 172.417C484.035 172.503 483.907 172.583 483.774 172.656C480.335 174.665 475.974 175.479 472.254 174.028C479.941 165.982 480.92 152.651 474.474 143.626C472.65 141.065 470.29 138.8 469.159 135.885C467.375 131.235 469.09 126.116 470.172 121.268C471.184 116.755 471.361 111.386 468.244 108.079C468.577 107.617 469.03 107.249 469.558 107.013C470.086 106.777 470.668 106.682 471.246 106.737C473.169 107 474.568 108.623 475.459 110.293C476.35 111.964 476.938 113.816 478.18 115.259C480.48 117.96 484.396 118.599 487.697 120.023C495.691 123.48 500.391 132.19 500.583 140.682Z" fill="#2F2E41"/>
<path d="M502.308 317.555C506.609 317.555 510.096 314.17 510.096 309.994C510.096 305.817 506.609 302.432 502.308 302.432C498.007 302.432 494.521 305.817 494.521 309.994C494.521 314.17 498.007 317.555 502.308 317.555Z" fill="#3F3D56"/>
<path d="M433.297 136.319C433.754 134.766 430.606 144.255 432.125 144.427C439.045 145.197 448.543 149.21 453.363 151.082C453.58 151.057 453.797 151.033 454.008 151.002C454.525 150.947 455.029 150.868 455.527 150.776C466.749 148.714 471.064 131.977 471.064 131.824C471.064 131.071 469.204 110.405 466.274 110.099C465.505 110.018 464.731 109.977 463.957 109.977H456.687C455.182 109.662 453.657 109.447 452.122 109.335H452.11C437.473 108.252 425.931 116.914 427.01 127.454C427.017 127.467 427.029 127.479 427.036 127.491C427.349 127.944 427.623 128.372 427.866 128.782C428.102 129.167 428.3 129.534 428.472 129.883C429.806 132.575 426.377 135.962 428.651 136.594C431.675 137.435 420.696 165.071 432.667 165.071C426.844 166.678 432.037 140.601 433.297 136.319Z" fill="#2F2E41"/>
<path d="M446.364 152.534C455.871 152.534 463.578 145.051 463.578 135.82C463.578 126.589 455.871 119.106 446.364 119.106C436.856 119.106 429.149 126.589 429.149 135.82C429.149 145.051 436.856 152.534 446.364 152.534Z" fill="#A0616A"/>
<path d="M427.01 128.366C427.298 128.513 427.578 128.647 427.866 128.782C428.166 128.923 428.466 129.063 428.766 129.192C434.53 131.73 439.222 132.012 442.069 128.366C442.145 126.447 442.589 124.56 443.377 122.799C443.238 124.766 443.772 126.723 444.896 128.366H450.629C456.533 132.171 459.565 132.569 455.467 145.06C454.325 148.541 449.781 168.796 451.569 171.8C452.086 171.745 457.587 149.559 458.085 149.468C469.307 147.406 476.437 129.455 475.524 128.439C475.528 125.551 474.845 122.702 473.526 120.113C471.858 116.834 469.257 114.087 466.032 112.197C464.109 111.292 462.105 110.561 460.044 110.013C459.993 110.001 459.948 109.989 459.897 109.977C459.265 109.812 458.621 109.659 457.976 109.53C456.644 109.257 455.297 109.059 453.942 108.937C453.846 108.931 453.75 108.925 453.661 108.925C453.12 108.926 452.589 109.067 452.122 109.334C452.116 109.334 452.116 109.341 452.11 109.341C451.777 109.53 451.486 109.781 451.254 110.081C450.847 110.585 450.626 111.208 450.629 111.849H444.245C444.009 111.849 443.773 111.855 443.537 111.867C439.276 112.008 435.224 113.688 432.172 116.578C429.12 119.468 427.288 123.359 427.036 127.491C427.017 127.785 427.01 128.072 427.01 128.366Z" fill="#2F2E41"/>
<path d="M464.648 123.023C470.912 123.023 475.989 118.093 475.989 112.011C475.989 105.93 470.912 101 464.648 101C458.385 101 453.308 105.93 453.308 112.011C453.308 118.093 458.385 123.023 464.648 123.023Z" fill="#2F2E41"/>
<path d="M502.396 313.111C502.949 312.264 503.307 311.31 503.443 310.315C503.579 309.32 503.492 308.309 503.186 307.35C502.88 306.392 502.363 305.509 501.672 304.764C500.98 304.018 500.13 303.427 499.18 303.032L499.236 268.5L489.402 266.136L489.644 307.152C489.078 308.754 489.137 310.502 489.81 312.065C490.482 313.627 491.722 314.896 493.294 315.631C494.866 316.365 496.66 316.515 498.338 316.05C500.015 315.586 501.459 314.54 502.396 313.111Z" fill="#A0616A"/>
<path d="M453.699 186.259L469.002 176.162C469.716 175.69 470.523 175.37 471.372 175.219C472.221 175.069 473.094 175.093 473.933 175.29C474.772 175.486 475.559 175.851 476.245 176.36C476.93 176.869 477.498 177.512 477.913 178.248L504.222 224.927L504.322 293.242L487.897 292.243L481.154 235.842L453.699 186.259Z" fill="#3F3D56"/>
<path d="M336.174 341.189H172.629C169.072 341.189 165.66 342.561 163.145 345.004C160.63 347.446 159.217 350.758 159.217 354.212C159.217 357.666 160.63 360.978 163.145 363.421C165.66 365.863 169.072 367.235 172.629 367.235H336.174C339.731 367.235 343.143 365.863 345.658 363.421C348.173 360.978 349.586 357.666 349.586 354.212C349.586 350.758 348.173 347.446 345.658 345.004C343.143 342.561 339.731 341.189 336.174 341.189Z" fill="white"/>
<path d="M336.174 368.075H172.629C168.842 368.075 165.211 366.614 162.533 364.015C159.855 361.415 158.351 357.889 158.351 354.212C158.351 350.535 159.855 347.009 162.533 344.409C165.211 341.809 168.842 340.349 172.629 340.349H336.174C339.96 340.349 343.592 341.809 346.269 344.409C348.947 347.009 350.451 350.535 350.451 354.212C350.451 357.889 348.947 361.415 346.269 364.015C343.592 366.614 339.96 368.075 336.174 368.075ZM172.629 342.029C169.301 342.029 166.11 343.313 163.757 345.597C161.404 347.882 160.082 350.981 160.082 354.212C160.082 357.443 161.404 360.542 163.757 362.826C166.11 365.111 169.301 366.394 172.629 366.394H336.174C339.501 366.394 342.693 365.111 345.046 362.826C347.399 360.542 348.721 357.443 348.721 354.212C348.721 350.981 347.399 347.882 345.046 345.597C342.693 343.313 339.501 342.029 336.174 342.029H172.629Z" fill="#3F3D56"/>
<path d="M345.817 398.021H273.644C272.633 398.021 271.663 397.631 270.947 396.937C270.232 396.242 269.83 395.3 269.83 394.318C269.83 393.336 270.232 392.394 270.947 391.699C271.663 391.004 272.633 390.614 273.644 390.614H345.817C346.829 390.614 347.799 391.004 348.514 391.699C349.23 392.394 349.632 393.336 349.632 394.318C349.632 395.3 349.23 396.242 348.514 396.937C347.799 397.631 346.829 398.021 345.817 398.021Z" fill="#3F3D56"/>
<defs>
<radialGradient id="paint0_radial_307_323" cx="0" cy="0" r="1" gradientUnits="userSpaceOnUse" gradientTransform="translate(303 303) rotate(90) scale(303)">
<stop stop-color="#FA7436"/>
<stop offset="1" stop-opacity="0.29"/>
</radialGradient>
<linearGradient id="paint1_linear_307_323" x1="175.047" y1="1.87602e-06" x2="360.757" y2="597.559" gradientUnits="userSpaceOnUse">
<stop stop-color="#FA7436"/>
<stop offset="1"/>
</linearGradient>
<radialGradient id="paint2_radial_307_323" cx="0" cy="0" r="1" gradientUnits="userSpaceOnUse" gradientTransform="translate(303 302) rotate(90) scale(264)">
<stop stop-color="#FA7436"/>
<stop offset="1" stop-color="white" stop-opacity="0.29"/>
</radialGradient>
<linearGradient id="paint3_linear_307_323" x1="303" y1="38" x2="356.333" y2="536.667" gradientUnits="userSpaceOnUse">
<stop stop-color="#FA7436"/>
<stop offset="1" stop-color="white"/>
</linearGradient>
</defs>
</svg>
