<svg width="606" height="606" viewBox="0 0 606 606" fill="none" xmlns="http://www.w3.org/2000/svg">
<circle cx="303" cy="303" r="303" fill="url(#paint0_radial_307_324)" fill-opacity="0.2"/>
<circle cx="303" cy="303" r="303" fill="url(#paint1_linear_307_324)" fill-opacity="0.2"/>
<circle cx="303" cy="302" r="264" fill="url(#paint2_radial_307_324)" fill-opacity="0.2"/>
<circle cx="303" cy="302" r="264" fill="url(#paint3_linear_307_324)" fill-opacity="0.2"/>
<g clip-path="url(#clip0_307_324)">
<path d="M272.371 200.96H270.368V147.894C270.368 143.86 269.546 139.866 267.951 136.14C266.355 132.414 264.016 129.028 261.067 126.176C258.118 123.324 254.618 121.061 250.765 119.518C246.912 117.974 242.783 117.18 238.613 117.18H122.373C113.951 117.18 105.874 120.416 99.9189 126.176C93.9638 131.936 90.6182 139.748 90.6182 147.893V439.022C90.6182 443.055 91.4395 447.049 93.0353 450.775C94.6312 454.502 96.9702 457.887 99.9189 460.739C102.868 463.591 106.368 465.854 110.221 467.397C114.074 468.941 118.203 469.735 122.373 469.735H238.613C247.035 469.735 255.112 466.499 261.067 460.739C267.022 454.98 270.368 447.168 270.368 439.022V238.734H272.371V200.96Z" fill="#3F3D56"/>
<path d="M238.92 122.991H223.747C224.445 124.645 224.711 126.441 224.522 128.218C224.334 129.996 223.696 131.701 222.666 133.185C221.635 134.668 220.243 135.883 218.613 136.723C216.982 137.564 215.163 138.003 213.316 138.003H146.723C144.875 138.003 143.056 137.564 141.426 136.723C139.795 135.883 138.403 134.668 137.373 133.185C136.342 131.701 135.705 129.996 135.516 128.218C135.328 126.441 135.594 124.645 136.292 122.991H122.12C119.006 122.991 115.922 123.584 113.045 124.737C110.168 125.889 107.554 127.579 105.352 129.709C103.15 131.839 101.403 134.367 100.211 137.15C99.0193 139.933 98.4059 142.915 98.4059 145.927V436.628C98.4059 439.64 99.0193 442.623 100.211 445.406C101.403 448.188 103.15 450.717 105.352 452.847C107.554 454.977 110.168 456.666 113.045 457.819C115.922 458.972 119.006 459.565 122.12 459.565H238.92C242.034 459.565 245.118 458.972 247.995 457.819C250.872 456.666 253.486 454.977 255.688 452.847C257.89 450.717 259.637 448.189 260.829 445.406C262.021 442.623 262.634 439.64 262.634 436.628V145.927C262.634 142.915 262.021 139.933 260.829 137.15C259.637 134.367 257.89 131.839 255.688 129.709C253.486 127.579 250.872 125.889 247.995 124.737C245.118 123.584 242.034 122.991 238.92 122.991Z" fill="white"/>
<path d="M284.94 467.605H28.6726C28.4942 467.605 28.3231 467.537 28.197 467.415C28.0709 467.293 28 467.127 28 466.955C28 466.782 28.0709 466.617 28.197 466.495C28.3231 466.373 28.4942 466.304 28.6726 466.304H284.94C285.118 466.304 285.289 466.373 285.415 466.495C285.541 466.617 285.612 466.782 285.612 466.955C285.612 467.127 285.541 467.293 285.415 467.415C285.289 467.537 285.118 467.605 284.94 467.605Z" fill="#CBCBCB"/>
<path d="M180.183 338.228C211.553 338.228 236.983 313.631 236.983 283.29C236.983 252.949 211.553 228.353 180.183 228.353C148.813 228.353 123.383 252.949 123.383 283.29C123.383 313.631 148.813 338.228 180.183 338.228Z" fill="#FA7436"/>
<path d="M174.699 305.739C173.422 305.742 172.178 305.342 171.155 304.6L171.092 304.554L157.743 294.678C157.125 294.219 156.606 293.648 156.216 292.995C155.827 292.343 155.574 291.623 155.471 290.876C155.369 290.129 155.421 289.37 155.622 288.642C155.823 287.914 156.171 287.231 156.645 286.633C157.119 286.035 157.71 285.534 158.384 285.157C159.059 284.78 159.803 284.535 160.576 284.436C161.348 284.337 162.133 284.387 162.885 284.582C163.638 284.776 164.343 285.112 164.962 285.571L173.608 291.984L194.039 266.203C194.513 265.605 195.104 265.103 195.778 264.726C196.452 264.35 197.197 264.105 197.969 264.006C198.741 263.908 199.525 263.957 200.278 264.152C201.03 264.346 201.735 264.682 202.353 265.14L202.355 265.142L202.228 265.312L202.358 265.142C203.605 266.068 204.421 267.436 204.626 268.944C204.832 270.451 204.411 271.977 203.455 273.184L179.423 303.495C178.867 304.194 178.152 304.759 177.334 305.147C176.516 305.535 175.616 305.735 174.705 305.733L174.699 305.739Z" fill="white"/>
<path d="M494.961 473.005C495.652 471.924 496.465 470.922 497.386 470.016C497.766 469.635 498.166 469.276 498.579 468.927C501.091 466.765 504.152 465.289 507.449 464.65C510.746 464.012 514.159 464.235 517.337 465.295C520.515 466.355 523.344 468.216 525.533 470.684C527.722 473.153 529.191 476.14 529.79 479.34C532.564 469.418 525.343 459.644 518.083 452.137C510.819 444.632 502.516 436.399 502.558 426.115C502.578 420.393 505.472 415.288 509.842 411.503C509.977 411.389 510.111 411.274 510.249 411.164C515.53 406.785 522.325 404.495 529.276 404.75C542.189 405.419 553.465 413.814 561.295 423.771C573.9 439.793 579.423 462.282 570.599 480.521C562.838 496.561 546.285 506.086 529.391 513.744C527.032 514.814 524.678 515.851 522.328 516.856C522.313 516.86 522.296 516.871 522.28 516.875C522.167 516.923 522.054 516.971 521.948 517.02C521.463 517.227 520.978 517.434 520.497 517.639L520.72 517.779L521.414 518.214C521.174 518.073 520.935 517.936 520.694 517.795C520.623 517.753 520.547 517.713 520.476 517.67C512.178 512.854 503.766 507.76 498.033 500.243C492.089 492.437 489.698 481.257 494.961 473.005Z" fill="#F1F1F1"/>
<path d="M550.319 454.878C552.156 458.921 553.374 463.201 553.935 467.584C554.376 471.491 554.21 475.441 553.443 479.302C551.795 487.235 548.202 494.67 542.965 500.98C539.015 505.771 534.454 510.06 529.391 513.744C527.032 514.814 524.678 515.851 522.328 516.856C522.313 516.86 522.296 516.871 522.28 516.875C522.167 516.923 522.054 516.971 521.948 517.02C521.463 517.227 520.978 517.434 520.497 517.639L520.72 517.779L521.414 518.214C521.173 518.073 520.935 517.937 520.694 517.795C520.623 517.753 520.547 517.713 520.476 517.67C522.302 511.492 522.57 504.981 521.258 498.682C519.947 492.383 517.093 486.481 512.937 481.468C508.759 476.519 503.431 472.595 497.386 470.016C497.766 469.635 498.166 469.276 498.579 468.927C500.907 469.961 503.137 471.192 505.241 472.606C512.766 477.636 518.416 484.876 521.356 493.254C523.98 500.855 524.308 509.023 522.3 516.797C522.717 516.534 523.135 516.264 523.541 515.995C531.271 510.953 538.395 504.898 543.761 497.473C548.389 491.197 551.351 483.917 552.385 476.274C553.413 467.925 551.253 459.715 547.4 452.265C543.144 444.295 537.781 436.925 531.461 430.361C525.113 423.615 517.935 417.645 510.088 412.586C509.911 412.47 509.787 412.294 509.741 412.092C509.695 411.891 509.731 411.68 509.842 411.504C509.926 411.343 510.072 411.221 510.249 411.164C510.339 411.142 510.432 411.139 510.523 411.157C510.614 411.175 510.699 411.212 510.773 411.266C511.742 411.892 512.702 412.522 513.651 413.172C521.554 418.584 528.731 424.925 535.017 432.049C541.091 438.915 546.62 446.544 550.319 454.878Z" fill="white"/>
<path d="M381.152 140.509C387.814 140.509 393.214 135.285 393.214 128.842C393.214 122.398 387.814 117.175 381.152 117.175C374.49 117.175 369.089 122.398 369.089 128.842C369.089 135.285 374.49 140.509 381.152 140.509Z" fill="#F1F1F1"/>
<path d="M531.145 296.644C535.207 296.644 538.5 293.459 538.5 289.531C538.5 285.602 535.207 282.417 531.145 282.417C527.084 282.417 523.791 285.602 523.791 289.531C523.791 293.459 527.084 296.644 531.145 296.644Z" fill="#F1F1F1"/>
<path d="M315.908 316.161C319.97 316.161 323.263 312.976 323.263 309.048C323.263 305.119 319.97 301.935 315.908 301.935C311.846 301.935 308.554 305.119 308.554 309.048C308.554 312.976 311.846 316.161 315.908 316.161Z" fill="#F1F1F1"/>
<path d="M320.06 519H576.327C576.506 519 576.677 518.931 576.803 518.809C576.929 518.687 577 518.522 577 518.349C577 518.177 576.929 518.011 576.803 517.889C576.677 517.767 576.506 517.699 576.327 517.699H320.06C319.882 517.699 319.711 517.767 319.585 517.889C319.459 518.011 319.388 518.177 319.388 518.349C319.388 518.522 319.459 518.687 319.585 518.809C319.711 518.931 319.882 519 320.06 519Z" fill="#CBCBCB"/>
<path d="M548.047 177.867C548.383 175.556 547.832 173.207 546.497 171.263C545.161 169.319 543.136 167.917 540.803 167.321C538.47 166.726 535.992 166.979 533.84 168.032C531.687 169.085 530.008 170.866 529.122 173.036L508.326 196.095L514.428 212.578L535.342 185.635C536.706 186.057 538.15 186.186 539.572 186.01C540.993 185.835 542.358 185.36 543.569 184.62C544.78 183.879 545.809 182.891 546.583 181.724C547.356 180.557 547.856 179.241 548.047 177.867Z" fill="#FFB7B7"/>
<path d="M461.847 267.589L530.877 196.333L521.566 182.016L434.984 252.839L461.847 267.589Z" fill="#3F3D56"/>
<path d="M446.44 224.295C459.813 224.295 470.654 213.809 470.654 200.874C470.654 187.94 459.813 177.454 446.44 177.454C433.067 177.454 422.226 187.94 422.226 200.874C422.226 213.809 433.067 224.295 446.44 224.295Z" fill="#2F2E41"/>
<path d="M448.386 187.644C453.597 182.533 459.902 178.59 466.858 176.09C471.324 174.49 476.184 173.502 480.852 174.411C485.521 175.319 489.935 178.443 491.238 182.873C492.303 186.496 491.203 190.396 489.55 193.806C487.898 197.216 485.691 200.378 484.354 203.916C482.991 207.525 482.581 211.407 483.161 215.208C483.742 219.01 485.295 222.611 487.68 225.685C490.064 228.758 493.205 231.207 496.816 232.809C500.428 234.411 504.395 235.115 508.36 234.858C503.773 235.453 499.545 237.538 495.061 238.647C490.578 239.757 485.286 239.682 481.955 236.575C478.429 233.288 478.359 227.944 478.529 223.211C478.783 216.175 479.036 209.139 479.289 202.104C479.419 198.515 479.529 194.812 478.191 191.463C476.853 188.114 473.674 185.182 469.962 185.212C467.149 185.235 464.659 186.884 462.403 188.509C460.146 190.135 457.759 191.869 454.956 192.111C452.154 192.353 448.955 190.347 449.164 187.633L448.386 187.644Z" fill="#2F2E41"/>
<path d="M354.473 358.13C352.148 358.755 349.667 358.533 347.5 357.507C345.334 356.481 343.631 354.721 342.716 352.562C341.801 350.403 341.736 347.994 342.535 345.792C343.333 343.59 344.939 341.748 347.048 340.614L367.966 317.66L385.659 321.357L360.774 344.932C361.386 346.186 361.706 347.554 361.712 348.94C361.718 350.326 361.41 351.696 360.809 352.954C360.208 354.213 359.33 355.328 358.235 356.223C357.14 357.117 355.856 357.768 354.473 358.13Z" fill="#FFB7B7"/>
<path d="M423.296 275.953L371.158 339.253L355.265 332.195L416.547 239.916L423.296 275.953Z" fill="#3F3D56"/>
<path d="M381.694 467.092L369.268 466.904L370.763 507.867H381.692L381.694 467.092Z" fill="#FFB7B7"/>
<path d="M384.48 504.416L362.956 504.415H362.955C359.317 504.415 355.828 505.813 353.256 508.301C350.683 510.789 349.238 514.163 349.238 517.682V518.113L384.48 518.114L384.48 504.416Z" fill="#2F2E41"/>
<path d="M463.967 456.228L450.393 464.656L477.545 496.251L486.742 490.54L463.967 456.228Z" fill="#FFB7B7"/>
<path d="M487.16 486.178L469.047 497.426L469.046 497.426C465.985 499.327 463.83 502.327 463.056 505.765C462.281 509.203 462.95 512.798 464.915 515.758L465.156 516.121L494.812 497.706L487.16 486.178Z" fill="#2F2E41"/>
<path d="M468.802 331.143C468.802 331.143 438.642 234.256 428.95 232.947C419.257 231.638 403.641 257.807 403.641 257.807C383.393 282.794 362.514 363.733 362.514 363.733C362.514 363.733 397.32 365.839 422.763 378.932C448.206 392.025 478.232 378.269 478.232 378.269L468.802 331.143Z" fill="#3F3D56"/>
<path opacity="0.1" d="M468.802 331.143C468.802 331.143 438.642 234.257 428.95 232.947C419.257 231.638 407.607 258.073 407.607 258.073C397.518 298.408 362.514 363.733 362.514 363.733C362.514 363.733 397.32 365.839 422.763 378.932C448.206 392.025 478.232 378.269 478.232 378.269L468.802 331.143Z" fill="black"/>
<path d="M444.058 302.156V350.84L449.982 421.364L479.577 474.71L465.452 484.469L425.095 433.725L409.133 383.339L384.066 494.878L365.232 493.577L378.312 338.931L403.132 295.401L444.058 302.156Z" fill="#2F2E41"/>
<path d="M413.65 255.066C404.233 264.174 412.977 273.933 412.977 273.933L402.215 297.353L444.59 308.412L459.399 244.411L449.309 234.002C429.131 233.351 429.12 232.947 429.12 232.947C425.585 236.293 413.65 255.066 413.65 255.066Z" fill="#FA7436"/>
<path d="M461.105 237.781C459.18 236.407 456.993 235.416 454.67 234.865C452.346 234.314 449.933 234.215 447.57 234.573C445.206 234.93 442.94 235.738 440.902 236.949C438.863 238.16 437.094 239.75 435.695 241.627C425.042 255.974 415.192 279.14 428.764 308.032C450.556 354.423 469.52 378.172 477.23 378.169C477.566 378.172 477.901 378.121 478.221 378.019C482.966 376.462 489.827 368.695 491.069 361.851C491.514 359.401 491.408 355.988 488.379 353.645C479.678 346.915 464.059 325.956 459.186 298.371C456.494 283.129 461.715 269.244 466.57 260.281C468.621 256.572 469.221 252.273 468.26 248.171C467.299 244.069 464.842 240.439 461.339 237.947L461.105 237.781Z" fill="#3F3D56"/>
<path d="M447.685 221.994C456.323 217.427 459.498 206.952 454.776 198.597C450.054 190.243 439.224 187.172 430.586 191.739C421.948 196.306 418.774 206.781 423.495 215.136C428.217 223.49 439.047 226.561 447.685 221.994Z" fill="#FFB7B7"/>
<path d="M414.068 205.563H439.806L440.07 201.989L441.39 205.563H445.353L445.876 198.479L448.492 205.563H456.16V205.212C456.154 200.281 454.126 195.553 450.521 192.065C446.916 188.578 442.027 186.617 436.929 186.611H433.3C428.201 186.617 423.313 188.578 419.708 192.065C416.102 195.552 414.074 200.281 414.068 205.212V205.563Z" fill="#2F2E41"/>
<path d="M452.272 218.41L463.255 214.963V189.164H442.509L443.022 189.66C450.169 196.563 458.117 221.055 452.272 218.41Z" fill="#2F2E41"/>
</g>
<defs>
<radialGradient id="paint0_radial_307_324" cx="0" cy="0" r="1" gradientUnits="userSpaceOnUse" gradientTransform="translate(303 303) rotate(90) scale(303)">
<stop stop-color="#FA7436"/>
<stop offset="1" stop-opacity="0.29"/>
</radialGradient>
<linearGradient id="paint1_linear_307_324" x1="175.047" y1="1.87602e-06" x2="360.757" y2="597.559" gradientUnits="userSpaceOnUse">
<stop stop-color="#FA7436"/>
<stop offset="0.0001" stop-color="#FA7436"/>
<stop offset="1" stop-opacity="0"/>
</linearGradient>
<radialGradient id="paint2_radial_307_324" cx="0" cy="0" r="1" gradientUnits="userSpaceOnUse" gradientTransform="translate(303 302) rotate(90) scale(264)">
<stop stop-color="#FA7436"/>
<stop offset="1" stop-color="white" stop-opacity="0.29"/>
</radialGradient>
<linearGradient id="paint3_linear_307_324" x1="303" y1="38" x2="356.333" y2="536.667" gradientUnits="userSpaceOnUse">
<stop stop-color="#FA7436"/>
<stop offset="1" stop-color="white"/>
<stop offset="1" stop-color="white"/>
</linearGradient>
<clipPath id="clip0_307_324">
<rect width="549" height="404" fill="white" transform="translate(28 115)"/>
</clipPath>
</defs>
</svg>
